G04 Layer_Color=32768*
%FSLAX44Y44*%
%MOMM*%
G71*
G01*
G75*
%ADD10C,0.2540*%
%ADD11C,0.1270*%
%ADD12C,0.0762*%
%ADD23C,0.1524*%
%ADD38C,0.5080*%
D10*
X817880Y1280160D02*
Y1308100D01*
X218440Y1264920D02*
Y1308100D01*
X552439Y1305560D02*
X817880D01*
X218440D02*
X475753D01*
X802640Y1310640D02*
X817880Y1305560D01*
X802640Y1300480D02*
X817880Y1305560D01*
X218440D02*
X233680Y1300480D01*
X218440Y1305560D02*
X233680Y1310640D01*
X858520Y762000D02*
X906780D01*
X868680Y1224280D02*
X906780D01*
X904240Y762000D02*
Y950733D01*
Y1027419D02*
Y1224280D01*
Y762000D02*
X909320Y777240D01*
X899160D02*
X904240Y762000D01*
X899160Y1209040D02*
X904240Y1224280D01*
X909320Y1209040D01*
D11*
X511084Y1068946D02*
G03*
X508403Y1063887I3354J-5018D01*
G01*
X508400Y1059550D02*
G03*
X511036Y1054536I6035J-27D01*
G01*
X558400Y1063890D02*
G03*
X555764Y1068904I-6035J27D01*
G01*
X555716Y1054494D02*
G03*
X558397Y1059553I-3354J5018D01*
G01*
X552073Y1071073D02*
G03*
X551400Y1071749I-899J-222D01*
G01*
X551590Y1063749D02*
G03*
X552073Y1071073I-109299J10891D01*
G01*
X515210Y1063749D02*
G03*
X514727Y1071073I-1662643J-106042D01*
G01*
X515400Y1071749D02*
G03*
X514727Y1071073I234J-906D01*
G01*
X551590Y1059691D02*
G03*
X552073Y1052367I1664497J106165D01*
G01*
X551400Y1051691D02*
G03*
X552073Y1052367I-234J906D01*
G01*
X514727Y1052367D02*
G03*
X515400Y1051691I899J222D01*
G01*
X515210Y1059691D02*
G03*
X514727Y1052367I109299J-10891D01*
G01*
X513867Y1063749D02*
G03*
X510900Y1066954I-13254J-9298D01*
G01*
X515400Y1071749D02*
G03*
X510900Y1067249I0J-4500D01*
G01*
X551400Y1051691D02*
G03*
X555900Y1056191I0J4500D01*
G01*
Y1067249D02*
G03*
X551400Y1071749I-4500J0D01*
G01*
X510900Y1056191D02*
G03*
X515400Y1051691I4500J0D01*
G01*
X508400Y1064720D02*
G03*
X508400Y1058720I0J-3000D01*
G01*
X558400D02*
G03*
X558400Y1064720I0J3000D01*
G01*
X424724Y1038466D02*
G03*
X422043Y1033407I3354J-5018D01*
G01*
X422040Y1029070D02*
G03*
X424676Y1024056I6035J-27D01*
G01*
X472040Y1033410D02*
G03*
X469404Y1038424I-6035J27D01*
G01*
X469356Y1024014D02*
G03*
X472037Y1029073I-3354J5018D01*
G01*
X465713Y1040593D02*
G03*
X465040Y1041269I-899J-222D01*
G01*
X465230Y1033269D02*
G03*
X465713Y1040593I-109299J10891D01*
G01*
X428850Y1033269D02*
G03*
X428367Y1040593I-1662643J-106042D01*
G01*
X429040Y1041269D02*
G03*
X428367Y1040593I234J-906D01*
G01*
X465230Y1029211D02*
G03*
X465713Y1021887I1664497J106165D01*
G01*
X465040Y1021211D02*
G03*
X465713Y1021887I-234J906D01*
G01*
X428367Y1021887D02*
G03*
X429040Y1021211I899J222D01*
G01*
X428850Y1029211D02*
G03*
X428367Y1021887I109299J-10891D01*
G01*
X427507Y1033269D02*
G03*
X424540Y1036473I-13254J-9298D01*
G01*
X429040Y1041269D02*
G03*
X424540Y1036769I0J-4500D01*
G01*
X465040Y1021211D02*
G03*
X469540Y1025711I0J4500D01*
G01*
Y1036769D02*
G03*
X465040Y1041269I-4500J0D01*
G01*
X424540Y1025711D02*
G03*
X429040Y1021211I4500J0D01*
G01*
X422040Y1034240D02*
G03*
X422040Y1028240I0J-3000D01*
G01*
X472040D02*
G03*
X472040Y1034240I0J3000D01*
G01*
X511084Y1038466D02*
G03*
X508403Y1033407I3354J-5018D01*
G01*
X508400Y1029070D02*
G03*
X511036Y1024056I6035J-27D01*
G01*
X558400Y1033410D02*
G03*
X555764Y1038424I-6035J27D01*
G01*
X555716Y1024014D02*
G03*
X558397Y1029073I-3354J5018D01*
G01*
X552073Y1040593D02*
G03*
X551400Y1041269I-899J-222D01*
G01*
X551590Y1033269D02*
G03*
X552073Y1040593I-109299J10891D01*
G01*
X515210Y1033269D02*
G03*
X514727Y1040593I-1662643J-106042D01*
G01*
X515400Y1041269D02*
G03*
X514727Y1040593I234J-906D01*
G01*
X551590Y1029211D02*
G03*
X552073Y1021887I1664497J106165D01*
G01*
X551400Y1021211D02*
G03*
X552073Y1021887I-234J906D01*
G01*
X514727Y1021887D02*
G03*
X515400Y1021211I899J222D01*
G01*
X515210Y1029211D02*
G03*
X514727Y1021887I109299J-10891D01*
G01*
X513867Y1033269D02*
G03*
X510900Y1036473I-13254J-9298D01*
G01*
X515400Y1041269D02*
G03*
X510900Y1036769I0J-4500D01*
G01*
X551400Y1021211D02*
G03*
X555900Y1025711I0J4500D01*
G01*
Y1036769D02*
G03*
X551400Y1041269I-4500J0D01*
G01*
X510900Y1025711D02*
G03*
X515400Y1021211I4500J0D01*
G01*
X508400Y1034240D02*
G03*
X508400Y1028240I0J-3000D01*
G01*
X558400D02*
G03*
X558400Y1034240I0J3000D01*
G01*
X424724Y1068946D02*
G03*
X422043Y1063887I3354J-5018D01*
G01*
X422040Y1059550D02*
G03*
X424676Y1054536I6035J-27D01*
G01*
X472040Y1063890D02*
G03*
X469404Y1068904I-6035J27D01*
G01*
X469356Y1054494D02*
G03*
X472037Y1059553I-3354J5018D01*
G01*
X465713Y1071073D02*
G03*
X465040Y1071749I-899J-222D01*
G01*
X465230Y1063749D02*
G03*
X465713Y1071073I-109299J10891D01*
G01*
X428850Y1063749D02*
G03*
X428367Y1071073I-1662643J-106042D01*
G01*
X429040Y1071749D02*
G03*
X428367Y1071073I234J-906D01*
G01*
X465230Y1059691D02*
G03*
X465713Y1052367I1664497J106165D01*
G01*
X465040Y1051691D02*
G03*
X465713Y1052367I-234J906D01*
G01*
X428367Y1052367D02*
G03*
X429040Y1051691I899J222D01*
G01*
X428850Y1059691D02*
G03*
X428367Y1052367I109299J-10891D01*
G01*
X427507Y1063749D02*
G03*
X424540Y1066954I-13254J-9298D01*
G01*
X429040Y1071749D02*
G03*
X424540Y1067249I0J-4500D01*
G01*
X465040Y1051691D02*
G03*
X469540Y1056191I0J4500D01*
G01*
Y1067249D02*
G03*
X465040Y1071749I-4500J0D01*
G01*
X424540Y1056191D02*
G03*
X429040Y1051691I4500J0D01*
G01*
X422040Y1064720D02*
G03*
X422040Y1058720I0J-3000D01*
G01*
X472040D02*
G03*
X472040Y1064720I0J3000D01*
G01*
X489676Y871614D02*
G03*
X492357Y876673I-3354J5018D01*
G01*
X492360Y881010D02*
G03*
X489724Y886024I-6035J27D01*
G01*
X442360Y876670D02*
G03*
X444996Y871656I6035J-27D01*
G01*
X445044Y886066D02*
G03*
X442363Y881007I3354J-5018D01*
G01*
X448687Y869487D02*
G03*
X449360Y868811I899J222D01*
G01*
X449170Y876811D02*
G03*
X448687Y869487I109299J-10891D01*
G01*
X485550Y876811D02*
G03*
X486033Y869487I1662643J106042D01*
G01*
X485360Y868811D02*
G03*
X486033Y869487I-234J906D01*
G01*
X449170Y880869D02*
G03*
X448687Y888193I-1664497J-106165D01*
G01*
X449360Y888869D02*
G03*
X448687Y888193I234J-906D01*
G01*
X486033Y888193D02*
G03*
X485360Y888869I-899J-222D01*
G01*
X485550Y880869D02*
G03*
X486033Y888193I-109299J10891D01*
G01*
X486893Y876811D02*
G03*
X489860Y873606I13254J9298D01*
G01*
X485360Y868811D02*
G03*
X489860Y873311I0J4500D01*
G01*
X449360Y888869D02*
G03*
X444860Y884369I0J-4500D01*
G01*
Y873311D02*
G03*
X449360Y868811I4500J0D01*
G01*
X489860Y884369D02*
G03*
X485360Y888869I-4500J0D01*
G01*
X492360Y875840D02*
G03*
X492360Y881840I0J3000D01*
G01*
X442360D02*
G03*
X442360Y875840I0J-3000D01*
G01*
X489676Y820814D02*
G03*
X492357Y825873I-3354J5018D01*
G01*
X492360Y830210D02*
G03*
X489724Y835224I-6035J27D01*
G01*
X442360Y825870D02*
G03*
X444996Y820856I6035J-27D01*
G01*
X445044Y835266D02*
G03*
X442363Y830207I3354J-5018D01*
G01*
X448687Y818687D02*
G03*
X449360Y818011I899J222D01*
G01*
X449170Y826011D02*
G03*
X448687Y818687I109299J-10891D01*
G01*
X485550Y826011D02*
G03*
X486033Y818687I1662643J106042D01*
G01*
X485360Y818011D02*
G03*
X486033Y818687I-234J906D01*
G01*
X449170Y830069D02*
G03*
X448687Y837393I-1664497J-106165D01*
G01*
X449360Y838069D02*
G03*
X448687Y837393I234J-906D01*
G01*
X486033Y837393D02*
G03*
X485360Y838069I-899J-222D01*
G01*
X485550Y830069D02*
G03*
X486033Y837393I-109299J10891D01*
G01*
X486893Y826011D02*
G03*
X489860Y822806I13254J9298D01*
G01*
X485360Y818011D02*
G03*
X489860Y822511I0J4500D01*
G01*
X449360Y838069D02*
G03*
X444860Y833569I0J-4500D01*
G01*
Y822511D02*
G03*
X449360Y818011I4500J0D01*
G01*
X489860Y833569D02*
G03*
X485360Y838069I-4500J0D01*
G01*
X492360Y825040D02*
G03*
X492360Y831040I0J3000D01*
G01*
X442360D02*
G03*
X442360Y825040I0J-3000D01*
G01*
X489676Y922414D02*
G03*
X492357Y927473I-3354J5018D01*
G01*
X492360Y931810D02*
G03*
X489724Y936824I-6035J27D01*
G01*
X442360Y927470D02*
G03*
X444996Y922456I6035J-27D01*
G01*
X445044Y936866D02*
G03*
X442363Y931807I3354J-5018D01*
G01*
X448687Y920287D02*
G03*
X449360Y919611I899J222D01*
G01*
X449170Y927611D02*
G03*
X448687Y920287I109299J-10891D01*
G01*
X485550Y927611D02*
G03*
X486033Y920287I1662643J106042D01*
G01*
X485360Y919611D02*
G03*
X486033Y920287I-234J906D01*
G01*
X449170Y931669D02*
G03*
X448687Y938993I-1664497J-106165D01*
G01*
X449360Y939669D02*
G03*
X448687Y938993I234J-906D01*
G01*
X486033Y938993D02*
G03*
X485360Y939669I-899J-222D01*
G01*
X485550Y931669D02*
G03*
X486033Y938993I-109299J10891D01*
G01*
X486893Y927611D02*
G03*
X489860Y924407I13254J9298D01*
G01*
X485360Y919611D02*
G03*
X489860Y924111I0J4500D01*
G01*
X449360Y939669D02*
G03*
X444860Y935169I0J-4500D01*
G01*
Y924111D02*
G03*
X449360Y919611I4500J0D01*
G01*
X489860Y935169D02*
G03*
X485360Y939669I-4500J0D01*
G01*
X492360Y926640D02*
G03*
X492360Y932640I0J3000D01*
G01*
X442360D02*
G03*
X442360Y926640I0J-3000D01*
G01*
X489676Y973214D02*
G03*
X492357Y978273I-3354J5018D01*
G01*
X492360Y982610D02*
G03*
X489724Y987624I-6035J27D01*
G01*
X442360Y978270D02*
G03*
X444996Y973256I6035J-27D01*
G01*
X445044Y987666D02*
G03*
X442363Y982607I3354J-5018D01*
G01*
X448687Y971087D02*
G03*
X449360Y970411I899J222D01*
G01*
X449170Y978411D02*
G03*
X448687Y971087I109299J-10891D01*
G01*
X485550Y978411D02*
G03*
X486033Y971087I1662643J106042D01*
G01*
X485360Y970411D02*
G03*
X486033Y971087I-234J906D01*
G01*
X449170Y982469D02*
G03*
X448687Y989793I-1664497J-106165D01*
G01*
X449360Y990469D02*
G03*
X448687Y989793I234J-906D01*
G01*
X486033Y989793D02*
G03*
X485360Y990469I-899J-222D01*
G01*
X485550Y982469D02*
G03*
X486033Y989793I-109299J10891D01*
G01*
X486893Y978411D02*
G03*
X489860Y975207I13254J9298D01*
G01*
X485360Y970411D02*
G03*
X489860Y974911I0J4500D01*
G01*
X449360Y990469D02*
G03*
X444860Y985969I0J-4500D01*
G01*
Y974911D02*
G03*
X449360Y970411I4500J0D01*
G01*
X489860Y985969D02*
G03*
X485360Y990469I-4500J0D01*
G01*
X492360Y977440D02*
G03*
X492360Y983440I0J3000D01*
G01*
X442360D02*
G03*
X442360Y977440I0J-3000D01*
G01*
X511082Y1054495D02*
X511150Y1054448D01*
X511353Y1054299D01*
X511101Y1068958D02*
X511340Y1069130D01*
X511085Y1068946D02*
X511101Y1068958D01*
X555650Y1068991D02*
X555721Y1068948D01*
X555447Y1069141D02*
X555650Y1068991D01*
X555460Y1054310D02*
X555699Y1054482D01*
X555715Y1054494D01*
X552933Y1059690D02*
X552962Y1059493D01*
X553068Y1059260D01*
X553257Y1059007D01*
X553466Y1058793D01*
X554133Y1058231D01*
X554745Y1057754D01*
X555265Y1057325D01*
X555647Y1056952D01*
X555835Y1056696D01*
X555900Y1056487D01*
X555801Y1066687D02*
X555900Y1066953D01*
X555499Y1066333D02*
X555801Y1066687D01*
X554969Y1065866D02*
X555499Y1066333D01*
X554234Y1065288D02*
X554969Y1065866D01*
X553855Y1064988D02*
X554234Y1065288D01*
X553464Y1064645D02*
X553855Y1064988D01*
X553231Y1064403D02*
X553464Y1064645D01*
X553023Y1064100D02*
X553231Y1064403D01*
X552950Y1063904D02*
X553023Y1064100D01*
X552933Y1063749D02*
X552950Y1063904D01*
X510900Y1056487D02*
X510925Y1056609D01*
X510999Y1056753D01*
X511125Y1056920D01*
X511301Y1057107D01*
X511540Y1057329D01*
X511831Y1057574D01*
X512176Y1057849D01*
X512566Y1058152D01*
X512942Y1058451D01*
X513336Y1058795D01*
X513454Y1058912D01*
X513569Y1059038D01*
X513679Y1059178D01*
X513777Y1059341D01*
X513818Y1059434D01*
X513850Y1059536D01*
X513863Y1059612D01*
X513867Y1059690D01*
X508400Y1059550D02*
X508403Y1063887D01*
X558397Y1059553D02*
X558400Y1063890D01*
X513867Y1063749D02*
X552933D01*
X515400Y1071749D02*
X551400D01*
X515400Y1051691D02*
X551400D01*
X513867Y1059690D02*
X552933D01*
X551590D02*
Y1063749D01*
X515210Y1059690D02*
Y1063749D01*
X513867Y1059690D02*
Y1063749D01*
X552933Y1059690D02*
Y1063749D01*
X555900Y1056190D02*
Y1067250D01*
X510900Y1056190D02*
Y1067250D01*
X424721Y1024015D02*
X424790Y1023969D01*
X424993Y1023819D01*
X424741Y1038477D02*
X424980Y1038650D01*
X424725Y1038466D02*
X424741Y1038477D01*
X469290Y1038512D02*
X469361Y1038468D01*
X469087Y1038661D02*
X469290Y1038512D01*
X469100Y1023830D02*
X469339Y1024003D01*
X469355Y1024014D01*
X466573Y1029211D02*
X466602Y1029013D01*
X466708Y1028780D01*
X466897Y1028527D01*
X467106Y1028313D01*
X467774Y1027750D01*
X468385Y1027274D01*
X468905Y1026845D01*
X469287Y1026472D01*
X469475Y1026216D01*
X469540Y1026007D01*
X469441Y1036207D02*
X469540Y1036473D01*
X469140Y1035853D02*
X469441Y1036207D01*
X468609Y1035386D02*
X469140Y1035853D01*
X467874Y1034808D02*
X468609Y1035386D01*
X467495Y1034509D02*
X467874Y1034808D01*
X467104Y1034165D02*
X467495Y1034509D01*
X466871Y1033923D02*
X467104Y1034165D01*
X466663Y1033620D02*
X466871Y1033923D01*
X466590Y1033424D02*
X466663Y1033620D01*
X466573Y1033270D02*
X466590Y1033424D01*
X424540Y1026007D02*
X424565Y1026130D01*
X424639Y1026273D01*
X424765Y1026440D01*
X424940Y1026627D01*
X425180Y1026849D01*
X425471Y1027094D01*
X425816Y1027368D01*
X426206Y1027672D01*
X426582Y1027971D01*
X426977Y1028315D01*
X427094Y1028432D01*
X427209Y1028558D01*
X427319Y1028699D01*
X427417Y1028860D01*
X427458Y1028953D01*
X427490Y1029056D01*
X427503Y1029132D01*
X427507Y1029211D01*
X422040Y1029070D02*
X422043Y1033407D01*
X472037Y1029073D02*
X472040Y1033410D01*
X427507Y1033270D02*
X466573D01*
X429040Y1041269D02*
X465040D01*
X429040Y1021211D02*
X465040D01*
X427507Y1029211D02*
X466573D01*
X465230D02*
Y1033270D01*
X428850Y1029211D02*
Y1033270D01*
X427507Y1029211D02*
Y1033270D01*
X466573Y1029211D02*
Y1033270D01*
X469540Y1025710D02*
Y1036770D01*
X424540Y1025710D02*
Y1036770D01*
X511082Y1024015D02*
X511150Y1023969D01*
X511353Y1023819D01*
X511101Y1038477D02*
X511340Y1038650D01*
X511085Y1038466D02*
X511101Y1038477D01*
X555650Y1038512D02*
X555721Y1038468D01*
X555447Y1038661D02*
X555650Y1038512D01*
X555460Y1023830D02*
X555699Y1024003D01*
X555715Y1024014D01*
X552933Y1029211D02*
X552962Y1029013D01*
X553068Y1028780D01*
X553257Y1028527D01*
X553466Y1028313D01*
X554133Y1027750D01*
X554745Y1027274D01*
X555265Y1026845D01*
X555647Y1026472D01*
X555835Y1026216D01*
X555900Y1026007D01*
X555801Y1036207D02*
X555900Y1036473D01*
X555499Y1035853D02*
X555801Y1036207D01*
X554969Y1035386D02*
X555499Y1035853D01*
X554234Y1034808D02*
X554969Y1035386D01*
X553855Y1034509D02*
X554234Y1034808D01*
X553464Y1034165D02*
X553855Y1034509D01*
X553231Y1033923D02*
X553464Y1034165D01*
X553023Y1033620D02*
X553231Y1033923D01*
X552950Y1033424D02*
X553023Y1033620D01*
X552933Y1033270D02*
X552950Y1033424D01*
X510900Y1026007D02*
X510925Y1026130D01*
X510999Y1026273D01*
X511125Y1026440D01*
X511301Y1026627D01*
X511540Y1026849D01*
X511831Y1027094D01*
X512176Y1027368D01*
X512566Y1027672D01*
X512942Y1027971D01*
X513336Y1028315D01*
X513454Y1028432D01*
X513569Y1028558D01*
X513679Y1028699D01*
X513777Y1028860D01*
X513818Y1028953D01*
X513850Y1029056D01*
X513863Y1029132D01*
X513867Y1029211D01*
X508400Y1029070D02*
X508403Y1033407D01*
X558397Y1029073D02*
X558400Y1033410D01*
X513867Y1033270D02*
X552933D01*
X515400Y1041269D02*
X551400D01*
X515400Y1021211D02*
X551400D01*
X513867Y1029211D02*
X552933D01*
X551590D02*
Y1033270D01*
X515210Y1029211D02*
Y1033270D01*
X513867Y1029211D02*
Y1033270D01*
X552933Y1029211D02*
Y1033270D01*
X555900Y1025710D02*
Y1036770D01*
X510900Y1025710D02*
Y1036770D01*
X424721Y1054495D02*
X424790Y1054448D01*
X424993Y1054299D01*
X424741Y1068958D02*
X424980Y1069130D01*
X424725Y1068946D02*
X424741Y1068958D01*
X469290Y1068991D02*
X469361Y1068948D01*
X469087Y1069141D02*
X469290Y1068991D01*
X469100Y1054310D02*
X469339Y1054482D01*
X469355Y1054494D01*
X466573Y1059690D02*
X466602Y1059493D01*
X466708Y1059260D01*
X466897Y1059007D01*
X467106Y1058793D01*
X467774Y1058231D01*
X468385Y1057754D01*
X468905Y1057325D01*
X469287Y1056952D01*
X469475Y1056696D01*
X469540Y1056487D01*
X469441Y1066687D02*
X469540Y1066953D01*
X469140Y1066333D02*
X469441Y1066687D01*
X468609Y1065866D02*
X469140Y1066333D01*
X467874Y1065288D02*
X468609Y1065866D01*
X467495Y1064988D02*
X467874Y1065288D01*
X467104Y1064645D02*
X467495Y1064988D01*
X466871Y1064403D02*
X467104Y1064645D01*
X466663Y1064100D02*
X466871Y1064403D01*
X466590Y1063904D02*
X466663Y1064100D01*
X466573Y1063749D02*
X466590Y1063904D01*
X424540Y1056487D02*
X424565Y1056609D01*
X424639Y1056753D01*
X424765Y1056920D01*
X424940Y1057107D01*
X425180Y1057329D01*
X425471Y1057574D01*
X425816Y1057849D01*
X426206Y1058152D01*
X426582Y1058451D01*
X426977Y1058795D01*
X427094Y1058912D01*
X427209Y1059038D01*
X427319Y1059178D01*
X427417Y1059341D01*
X427458Y1059434D01*
X427490Y1059536D01*
X427503Y1059612D01*
X427507Y1059690D01*
X422040Y1059550D02*
X422043Y1063887D01*
X472037Y1059553D02*
X472040Y1063890D01*
X427507Y1063749D02*
X466573D01*
X429040Y1071749D02*
X465040D01*
X429040Y1051691D02*
X465040D01*
X427507Y1059690D02*
X466573D01*
X465230D02*
Y1063749D01*
X428850Y1059690D02*
Y1063749D01*
X427507Y1059690D02*
Y1063749D01*
X466573Y1059690D02*
Y1063749D01*
X469540Y1056190D02*
Y1067250D01*
X424540Y1056190D02*
Y1067250D01*
X489610Y886112D02*
X489678Y886065D01*
X489407Y886261D02*
X489610Y886112D01*
X489420Y871430D02*
X489659Y871602D01*
X489675Y871614D01*
X445039Y871612D02*
X445110Y871569D01*
X445313Y871419D01*
X445061Y886077D02*
X445300Y886250D01*
X445045Y886066D02*
X445061Y886077D01*
X447798Y881067D02*
X447827Y880870D01*
X447692Y881300D02*
X447798Y881067D01*
X447503Y881553D02*
X447692Y881300D01*
X447294Y881767D02*
X447503Y881553D01*
X446627Y882329D02*
X447294Y881767D01*
X446015Y882806D02*
X446627Y882329D01*
X445495Y883235D02*
X446015Y882806D01*
X445113Y883608D02*
X445495Y883235D01*
X444925Y883864D02*
X445113Y883608D01*
X444860Y884073D02*
X444925Y883864D01*
X444860Y873607D02*
X444959Y873873D01*
X445261Y874227D01*
X445791Y874694D01*
X446526Y875272D01*
X446905Y875572D01*
X447296Y875915D01*
X447529Y876158D01*
X447737Y876460D01*
X447810Y876656D01*
X447827Y876811D01*
X489835Y883951D02*
X489860Y884073D01*
X489761Y883807D02*
X489835Y883951D01*
X489635Y883640D02*
X489761Y883807D01*
X489459Y883453D02*
X489635Y883640D01*
X489221Y883231D02*
X489459Y883453D01*
X488929Y882986D02*
X489221Y883231D01*
X488584Y882711D02*
X488929Y882986D01*
X488194Y882408D02*
X488584Y882711D01*
X487818Y882109D02*
X488194Y882408D01*
X487424Y881765D02*
X487818Y882109D01*
X487306Y881648D02*
X487424Y881765D01*
X487191Y881523D02*
X487306Y881648D01*
X487081Y881382D02*
X487191Y881523D01*
X486983Y881219D02*
X487081Y881382D01*
X486942Y881126D02*
X486983Y881219D01*
X486910Y881024D02*
X486942Y881126D01*
X486897Y880948D02*
X486910Y881024D01*
X486893Y880870D02*
X486897Y880948D01*
X492357Y876673D02*
X492360Y881010D01*
X442360Y876670D02*
X442363Y881007D01*
X447827Y876811D02*
X486893D01*
X449360Y868811D02*
X485360D01*
X449360Y888869D02*
X485360D01*
X447827Y880870D02*
X486893D01*
X449170Y876811D02*
Y880870D01*
X485550Y876811D02*
Y880870D01*
X486893Y876811D02*
Y880870D01*
X447827Y876811D02*
Y880870D01*
X444860Y873310D02*
Y884370D01*
X489860Y873310D02*
Y884370D01*
X489610Y835312D02*
X489678Y835265D01*
X489407Y835461D02*
X489610Y835312D01*
X489420Y820630D02*
X489659Y820803D01*
X489675Y820814D01*
X445039Y820812D02*
X445110Y820769D01*
X445313Y820619D01*
X445061Y835277D02*
X445300Y835450D01*
X445045Y835266D02*
X445061Y835277D01*
X447798Y830267D02*
X447827Y830070D01*
X447692Y830500D02*
X447798Y830267D01*
X447503Y830753D02*
X447692Y830500D01*
X447294Y830967D02*
X447503Y830753D01*
X446627Y831529D02*
X447294Y830967D01*
X446015Y832006D02*
X446627Y831529D01*
X445495Y832435D02*
X446015Y832006D01*
X445113Y832808D02*
X445495Y832435D01*
X444925Y833064D02*
X445113Y832808D01*
X444860Y833273D02*
X444925Y833064D01*
X444860Y822807D02*
X444959Y823073D01*
X445261Y823427D01*
X445791Y823894D01*
X446526Y824472D01*
X446905Y824771D01*
X447296Y825115D01*
X447529Y825358D01*
X447737Y825660D01*
X447810Y825856D01*
X447827Y826011D01*
X489835Y833150D02*
X489860Y833273D01*
X489761Y833007D02*
X489835Y833150D01*
X489635Y832840D02*
X489761Y833007D01*
X489459Y832653D02*
X489635Y832840D01*
X489221Y832431D02*
X489459Y832653D01*
X488929Y832186D02*
X489221Y832431D01*
X488584Y831911D02*
X488929Y832186D01*
X488194Y831608D02*
X488584Y831911D01*
X487818Y831309D02*
X488194Y831608D01*
X487424Y830965D02*
X487818Y831309D01*
X487306Y830848D02*
X487424Y830965D01*
X487191Y830723D02*
X487306Y830848D01*
X487081Y830582D02*
X487191Y830723D01*
X486983Y830419D02*
X487081Y830582D01*
X486942Y830327D02*
X486983Y830419D01*
X486910Y830224D02*
X486942Y830327D01*
X486897Y830148D02*
X486910Y830224D01*
X486893Y830070D02*
X486897Y830148D01*
X492357Y825873D02*
X492360Y830210D01*
X442360Y825870D02*
X442363Y830207D01*
X447827Y826011D02*
X486893D01*
X449360Y818011D02*
X485360D01*
X449360Y838069D02*
X485360D01*
X447827Y830070D02*
X486893D01*
X449170Y826011D02*
Y830070D01*
X485550Y826011D02*
Y830070D01*
X486893Y826011D02*
Y830070D01*
X447827Y826011D02*
Y830070D01*
X444860Y822510D02*
Y833570D01*
X489860Y822510D02*
Y833570D01*
X489610Y936911D02*
X489678Y936865D01*
X489407Y937061D02*
X489610Y936911D01*
X489420Y922230D02*
X489659Y922402D01*
X489675Y922414D01*
X445039Y922412D02*
X445110Y922368D01*
X445313Y922219D01*
X445061Y936878D02*
X445300Y937050D01*
X445045Y936866D02*
X445061Y936878D01*
X447798Y931867D02*
X447827Y931669D01*
X447692Y932100D02*
X447798Y931867D01*
X447503Y932353D02*
X447692Y932100D01*
X447294Y932567D02*
X447503Y932353D01*
X446627Y933130D02*
X447294Y932567D01*
X446015Y933606D02*
X446627Y933130D01*
X445495Y934035D02*
X446015Y933606D01*
X445113Y934408D02*
X445495Y934035D01*
X444925Y934664D02*
X445113Y934408D01*
X444860Y934873D02*
X444925Y934664D01*
X444860Y924407D02*
X444959Y924673D01*
X445261Y925027D01*
X445791Y925494D01*
X446526Y926072D01*
X446905Y926372D01*
X447296Y926715D01*
X447529Y926958D01*
X447737Y927261D01*
X447810Y927456D01*
X447827Y927610D01*
X489835Y934751D02*
X489860Y934873D01*
X489761Y934607D02*
X489835Y934751D01*
X489635Y934440D02*
X489761Y934607D01*
X489459Y934253D02*
X489635Y934440D01*
X489221Y934031D02*
X489459Y934253D01*
X488929Y933786D02*
X489221Y934031D01*
X488584Y933512D02*
X488929Y933786D01*
X488194Y933208D02*
X488584Y933512D01*
X487818Y932909D02*
X488194Y933208D01*
X487424Y932565D02*
X487818Y932909D01*
X487306Y932448D02*
X487424Y932565D01*
X487191Y932323D02*
X487306Y932448D01*
X487081Y932181D02*
X487191Y932323D01*
X486983Y932020D02*
X487081Y932181D01*
X486942Y931926D02*
X486983Y932020D01*
X486910Y931824D02*
X486942Y931926D01*
X486897Y931748D02*
X486910Y931824D01*
X486893Y931669D02*
X486897Y931748D01*
X492357Y927473D02*
X492360Y931810D01*
X442360Y927470D02*
X442363Y931807D01*
X447827Y927610D02*
X486893D01*
X449360Y919611D02*
X485360D01*
X449360Y939669D02*
X485360D01*
X447827Y931669D02*
X486893D01*
X449170Y927610D02*
Y931669D01*
X485550Y927610D02*
Y931669D01*
X486893Y927610D02*
Y931669D01*
X447827Y927610D02*
Y931669D01*
X444860Y924110D02*
Y935170D01*
X489860Y924110D02*
Y935170D01*
X489610Y987711D02*
X489678Y987665D01*
X489407Y987861D02*
X489610Y987711D01*
X489420Y973030D02*
X489659Y973203D01*
X489675Y973214D01*
X445039Y973212D02*
X445110Y973168D01*
X445313Y973019D01*
X445061Y987678D02*
X445300Y987850D01*
X445045Y987666D02*
X445061Y987678D01*
X447798Y982667D02*
X447827Y982469D01*
X447692Y982900D02*
X447798Y982667D01*
X447503Y983153D02*
X447692Y982900D01*
X447294Y983367D02*
X447503Y983153D01*
X446627Y983930D02*
X447294Y983367D01*
X446015Y984406D02*
X446627Y983930D01*
X445495Y984835D02*
X446015Y984406D01*
X445113Y985208D02*
X445495Y984835D01*
X444925Y985464D02*
X445113Y985208D01*
X444860Y985673D02*
X444925Y985464D01*
X444860Y975207D02*
X444959Y975473D01*
X445261Y975827D01*
X445791Y976294D01*
X446526Y976872D01*
X446905Y977171D01*
X447296Y977515D01*
X447529Y977758D01*
X447737Y978061D01*
X447810Y978256D01*
X447827Y978410D01*
X489835Y985551D02*
X489860Y985673D01*
X489761Y985407D02*
X489835Y985551D01*
X489635Y985240D02*
X489761Y985407D01*
X489459Y985053D02*
X489635Y985240D01*
X489221Y984831D02*
X489459Y985053D01*
X488929Y984586D02*
X489221Y984831D01*
X488584Y984312D02*
X488929Y984586D01*
X488194Y984008D02*
X488584Y984312D01*
X487818Y983709D02*
X488194Y984008D01*
X487424Y983365D02*
X487818Y983709D01*
X487306Y983248D02*
X487424Y983365D01*
X487191Y983123D02*
X487306Y983248D01*
X487081Y982981D02*
X487191Y983123D01*
X486983Y982820D02*
X487081Y982981D01*
X486942Y982727D02*
X486983Y982820D01*
X486910Y982624D02*
X486942Y982727D01*
X486897Y982548D02*
X486910Y982624D01*
X486893Y982469D02*
X486897Y982548D01*
X492357Y978273D02*
X492360Y982610D01*
X442360Y978270D02*
X442363Y982607D01*
X447827Y978410D02*
X486893D01*
X449360Y970411D02*
X485360D01*
X449360Y990469D02*
X485360D01*
X447827Y982469D02*
X486893D01*
X449170Y978410D02*
Y982469D01*
X485550Y978410D02*
Y982469D01*
X486893Y978410D02*
Y982469D01*
X447827Y978410D02*
Y982469D01*
X444860Y974910D02*
Y985970D01*
X489860Y974910D02*
Y985970D01*
D12*
X796918Y1059180D02*
Y1135380D01*
X767718D02*
X796918D01*
X767718Y1059180D02*
Y1135380D01*
Y1059180D02*
X796918D01*
X678180Y828682D02*
X754380D01*
Y857883D01*
X678180D02*
X754380D01*
X678180Y828682D02*
Y857883D01*
Y869322D02*
X754380D01*
Y898522D01*
X678180D02*
X754380D01*
X678180Y869322D02*
Y898522D01*
Y909962D02*
X754380D01*
Y939163D01*
X678180D02*
X754380D01*
X678180Y909962D02*
Y939163D01*
Y950602D02*
X754380D01*
Y979802D01*
X678180D02*
X754380D01*
X678180Y950602D02*
Y979802D01*
X266700Y857878D02*
X342900D01*
X266700Y828678D02*
Y857878D01*
Y828678D02*
X342900D01*
Y857878D01*
X266700Y897876D02*
X342900D01*
X266700Y868675D02*
Y897876D01*
Y868675D02*
X342900D01*
Y897876D01*
X266700Y938516D02*
X342900D01*
X266700Y909315D02*
Y938516D01*
Y909315D02*
X342900D01*
Y938516D01*
X266700Y979156D02*
X342900D01*
X266700Y949955D02*
Y979156D01*
Y949955D02*
X342900D01*
Y979156D01*
D23*
X489974Y1311653D02*
X479817D01*
Y1304036D01*
X484895Y1306575D01*
X487435D01*
X489974Y1304036D01*
Y1298958D01*
X487435Y1296418D01*
X482356D01*
X479817Y1298958D01*
X495052D02*
X497591Y1296418D01*
X502670D01*
X505209Y1298958D01*
Y1309114D01*
X502670Y1311653D01*
X497591D01*
X495052Y1309114D01*
Y1306575D01*
X497591Y1304036D01*
X505209D01*
X510287Y1296418D02*
Y1298958D01*
X512826D01*
Y1296418D01*
X510287D01*
X522983Y1298958D02*
X525522Y1296418D01*
X530601D01*
X533140Y1298958D01*
Y1309114D01*
X530601Y1311653D01*
X525522D01*
X522983Y1309114D01*
Y1306575D01*
X525522Y1304036D01*
X533140D01*
X545836Y1296418D02*
Y1311653D01*
X538218Y1304036D01*
X548375D01*
X913382Y962415D02*
X898147D01*
X905764Y954797D01*
Y964954D01*
X898147Y980189D02*
X900686Y975110D01*
X905764Y970032D01*
X910842D01*
X913382Y972571D01*
Y977650D01*
X910842Y980189D01*
X908303D01*
X905764Y977650D01*
Y970032D01*
X913382Y985267D02*
X910842D01*
Y987806D01*
X913382D01*
Y985267D01*
Y1008120D02*
Y997963D01*
X903225Y1008120D01*
X900686D01*
X898147Y1005581D01*
Y1000502D01*
X900686Y997963D01*
Y1013198D02*
X898147Y1015737D01*
Y1020816D01*
X900686Y1023355D01*
X903225D01*
X905764Y1020816D01*
Y1018277D01*
Y1020816D01*
X908303Y1023355D01*
X910842D01*
X913382Y1020816D01*
Y1015737D01*
X910842Y1013198D01*
D38*
X533400Y1061720D02*
D03*
X447040Y1031240D02*
D03*
X533400D02*
D03*
X447040Y1061720D02*
D03*
X467360Y878840D02*
D03*
Y828040D02*
D03*
Y929640D02*
D03*
Y980440D02*
D03*
M02*
