G04 Layer_Color=65535*
%FSLAX44Y44*%
%MOMM*%
G71*
G01*
G75*
%ADD11C,0.1270*%
%ADD12C,0.0762*%
%ADD22C,0.2000*%
%ADD23C,0.1524*%
%ADD24C,0.5000*%
%ADD25C,0.4000*%
%ADD26C,0.2032*%
%ADD27C,0.1280*%
D11*
X782320Y1056640D02*
Y1060450D01*
X764540Y1071880D02*
X769620D01*
X795020D02*
X800100D01*
X764540Y1056640D02*
Y1137920D01*
X800100Y1056640D02*
Y1137920D01*
X764540D02*
X800100D01*
X764540Y1056640D02*
X800100D01*
X675640Y843280D02*
X679450D01*
X690880Y855980D02*
Y861060D01*
Y825500D02*
Y830580D01*
X675640Y861060D02*
X756920D01*
X675640Y825500D02*
X756920D01*
Y861060D01*
X675640Y825500D02*
Y861060D01*
Y883920D02*
X679450D01*
X690880Y896620D02*
Y901700D01*
Y866140D02*
Y871220D01*
X675640Y901700D02*
X756920D01*
X675640Y866140D02*
X756920D01*
Y901700D01*
X675640Y866140D02*
Y901700D01*
Y924560D02*
X679450D01*
X690880Y937260D02*
Y942340D01*
Y906780D02*
Y911860D01*
X675640Y942340D02*
X756920D01*
X675640Y906780D02*
X756920D01*
Y942340D01*
X675640Y906780D02*
Y942340D01*
Y965200D02*
X679450D01*
X690880Y977900D02*
Y982980D01*
Y947420D02*
Y952500D01*
X675640Y982980D02*
X756920D01*
X675640Y947420D02*
X756920D01*
Y982980D01*
X675640Y947420D02*
Y982980D01*
X341630Y843280D02*
X345440D01*
X330200Y825500D02*
Y830580D01*
Y855980D02*
Y861060D01*
X264160Y825500D02*
X345440D01*
X264160Y861060D02*
X345440D01*
X264160Y825500D02*
Y861060D01*
X345440Y825500D02*
Y861060D01*
X341630Y883278D02*
X345440D01*
X330200Y865498D02*
Y870578D01*
Y895978D02*
Y901058D01*
X264160Y865498D02*
X345440D01*
X264160Y901058D02*
X345440D01*
X264160Y865498D02*
Y901058D01*
X345440Y865498D02*
Y901058D01*
X341630Y923918D02*
X345440D01*
X330200Y906138D02*
Y911218D01*
Y936618D02*
Y941698D01*
X264160Y906138D02*
X345440D01*
X264160Y941698D02*
X345440D01*
X264160Y906138D02*
Y941698D01*
X345440Y906138D02*
Y941698D01*
X341630Y964558D02*
X345440D01*
X330200Y946778D02*
Y951858D01*
Y977258D02*
Y982338D01*
X264160Y946778D02*
X345440D01*
X264160Y982338D02*
X345440D01*
X264160Y946778D02*
Y982338D01*
X345440Y946778D02*
Y982338D01*
X495300Y1049020D02*
Y1074420D01*
Y1049020D02*
X571500D01*
Y1074420D01*
X495300D02*
X571500D01*
X408940Y1018540D02*
Y1043940D01*
Y1018540D02*
X485140D01*
Y1043940D01*
X408940D02*
X485140D01*
X495300Y1018540D02*
Y1043940D01*
Y1018540D02*
X571500D01*
Y1043940D01*
X495300D02*
X571500D01*
X408940Y1049020D02*
Y1074420D01*
Y1049020D02*
X485140D01*
Y1074420D01*
X408940D02*
X485140D01*
X505460Y866140D02*
Y891540D01*
X429260D02*
X505460D01*
X429260Y866140D02*
Y891540D01*
Y866140D02*
X505460D01*
Y815340D02*
Y840740D01*
X429260D02*
X505460D01*
X429260Y815340D02*
Y840740D01*
Y815340D02*
X505460D01*
Y916940D02*
Y942340D01*
X429260D02*
X505460D01*
X429260Y916940D02*
Y942340D01*
Y916940D02*
X505460D01*
Y967740D02*
Y993140D01*
X429260D02*
X505460D01*
X429260Y967740D02*
Y993140D01*
Y967740D02*
X505460D01*
X584198Y1062988D02*
X582929Y1064258D01*
X580390D01*
X579120Y1062988D01*
Y1057910D01*
X580390Y1056640D01*
X582929D01*
X584198Y1057910D01*
X586738D02*
X588007Y1056640D01*
X590546D01*
X591816Y1057910D01*
Y1062988D01*
X590546Y1064258D01*
X588007D01*
X586738Y1062988D01*
Y1061718D01*
X588007Y1060449D01*
X591816D01*
X391158Y1032508D02*
X389889Y1033777D01*
X387350D01*
X386080Y1032508D01*
Y1027430D01*
X387350Y1026160D01*
X389889D01*
X391158Y1027430D01*
X393698Y1026160D02*
X396237D01*
X394967D01*
Y1033777D01*
X393698Y1032508D01*
X400046Y1026160D02*
X402585D01*
X401315D01*
Y1033777D01*
X400046Y1032508D01*
X584198D02*
X582929Y1033777D01*
X580390D01*
X579120Y1032508D01*
Y1027430D01*
X580390Y1026160D01*
X582929D01*
X584198Y1027430D01*
X586738Y1033777D02*
X591816D01*
Y1032508D01*
X586738Y1027430D01*
Y1026160D01*
X396238Y1062988D02*
X394969Y1064258D01*
X392430D01*
X391160Y1062988D01*
Y1057910D01*
X392430Y1056640D01*
X394969D01*
X396238Y1057910D01*
X403856Y1064258D02*
X398778D01*
Y1060449D01*
X401317Y1061718D01*
X402586D01*
X403856Y1060449D01*
Y1057910D01*
X402586Y1056640D01*
X400047D01*
X398778Y1057910D01*
X416558Y880108D02*
X415289Y881377D01*
X412750D01*
X411480Y880108D01*
Y875030D01*
X412750Y873760D01*
X415289D01*
X416558Y875030D01*
X422906Y873760D02*
Y881377D01*
X419098Y877569D01*
X424176D01*
X513080Y828040D02*
Y835658D01*
X516889D01*
X518158Y834388D01*
Y831849D01*
X516889Y830579D01*
X513080D01*
X515619D02*
X518158Y828040D01*
X520698D02*
X523237D01*
X521967D01*
Y835658D01*
X520698Y834388D01*
X532124Y828040D02*
X527046D01*
X532124Y833118D01*
Y834388D01*
X530854Y835658D01*
X528315D01*
X527046Y834388D01*
X518160Y866140D02*
Y873757D01*
X521969D01*
X523238Y872488D01*
Y869949D01*
X521969Y868679D01*
X518160D01*
X520699D02*
X523238Y866140D01*
X525778D02*
X528317D01*
X527047D01*
Y873757D01*
X525778Y872488D01*
X532126Y866140D02*
X534665D01*
X533395D01*
Y873757D01*
X532126Y872488D01*
X513080Y906780D02*
Y914398D01*
X516889D01*
X518158Y913128D01*
Y910589D01*
X516889Y909319D01*
X513080D01*
X515619D02*
X518158Y906780D01*
X520698D02*
X523237D01*
X521967D01*
Y914398D01*
X520698Y913128D01*
X527046D02*
X528315Y914398D01*
X530854D01*
X532124Y913128D01*
Y908050D01*
X530854Y906780D01*
X528315D01*
X527046Y908050D01*
Y913128D01*
X518160Y952500D02*
Y960117D01*
X521969D01*
X523238Y958848D01*
Y956309D01*
X521969Y955039D01*
X518160D01*
X520699D02*
X523238Y952500D01*
X525778Y953770D02*
X527047Y952500D01*
X529586D01*
X530856Y953770D01*
Y958848D01*
X529586Y960117D01*
X527047D01*
X525778Y958848D01*
Y957578D01*
X527047Y956309D01*
X530856D01*
X416558Y829308D02*
X415289Y830577D01*
X412750D01*
X411480Y829308D01*
Y824230D01*
X412750Y822960D01*
X415289D01*
X416558Y824230D01*
X419098Y829308D02*
X420367Y830577D01*
X422906D01*
X424176Y829308D01*
Y828038D01*
X422906Y826769D01*
X421637D01*
X422906D01*
X424176Y825499D01*
Y824230D01*
X422906Y822960D01*
X420367D01*
X419098Y824230D01*
X411478Y930908D02*
X410209Y932178D01*
X407670D01*
X406400Y930908D01*
Y925830D01*
X407670Y924560D01*
X410209D01*
X411478Y925830D01*
X419096Y924560D02*
X414017D01*
X419096Y929638D01*
Y930908D01*
X417826Y932178D01*
X415287D01*
X414017Y930908D01*
X416558Y981708D02*
X415289Y982978D01*
X412750D01*
X411480Y981708D01*
Y976630D01*
X412750Y975360D01*
X415289D01*
X416558Y976630D01*
X419098Y975360D02*
X421637D01*
X420367D01*
Y982978D01*
X419098Y981708D01*
X719074Y1145284D02*
Y1137666D01*
X722883D01*
X724152Y1138936D01*
Y1144014D01*
X722883Y1145284D01*
X719074D01*
X726692Y1137666D02*
X729231D01*
X727961D01*
Y1145284D01*
X726692Y1144014D01*
X688594Y1145284D02*
Y1137666D01*
X692403D01*
X693672Y1138936D01*
Y1144014D01*
X692403Y1145284D01*
X688594D01*
X701290Y1137666D02*
X696211D01*
X701290Y1142744D01*
Y1144014D01*
X700020Y1145284D01*
X697481D01*
X696211Y1144014D01*
X658114Y1145284D02*
Y1137666D01*
X661923D01*
X663192Y1138936D01*
Y1144014D01*
X661923Y1145284D01*
X658114D01*
X665732Y1144014D02*
X667001Y1145284D01*
X669540D01*
X670810Y1144014D01*
Y1142744D01*
X669540Y1141475D01*
X668271D01*
X669540D01*
X670810Y1140205D01*
Y1138936D01*
X669540Y1137666D01*
X667001D01*
X665732Y1138936D01*
X627634Y1145284D02*
Y1137666D01*
X631443D01*
X632712Y1138936D01*
Y1144014D01*
X631443Y1145284D01*
X627634D01*
X639060Y1137666D02*
Y1145284D01*
X635252Y1141475D01*
X640330D01*
X575308Y1089658D02*
X572769D01*
X574039D01*
Y1083310D01*
X572769Y1082040D01*
X571500D01*
X570230Y1083310D01*
X577848Y1082040D02*
X580387D01*
X579117D01*
Y1089658D01*
X577848Y1088388D01*
X589274Y1082040D02*
X584196D01*
X589274Y1087118D01*
Y1088388D01*
X588004Y1089658D01*
X585465D01*
X584196Y1088388D01*
X528318Y1089658D02*
X525779D01*
X527049D01*
Y1083310D01*
X525779Y1082040D01*
X524510D01*
X523240Y1083310D01*
X530858Y1082040D02*
X533397D01*
X532127D01*
Y1089658D01*
X530858Y1088388D01*
X537206D02*
X538475Y1089658D01*
X541014D01*
X542284Y1088388D01*
Y1083310D01*
X541014Y1082040D01*
X538475D01*
X537206Y1083310D01*
Y1088388D01*
X486408Y1092197D02*
X483869D01*
X485139D01*
Y1085850D01*
X483869Y1084580D01*
X482600D01*
X481330Y1085850D01*
X488947Y1084580D02*
X491487D01*
X490217D01*
Y1092197D01*
X488947Y1090928D01*
X495295D02*
X496565Y1092197D01*
X499104D01*
X500374Y1090928D01*
Y1089658D01*
X499104Y1088389D01*
X497835D01*
X499104D01*
X500374Y1087119D01*
Y1085850D01*
X499104Y1084580D01*
X496565D01*
X495295Y1085850D01*
X436878Y1089658D02*
X434339D01*
X435609D01*
Y1083310D01*
X434339Y1082040D01*
X433070D01*
X431800Y1083310D01*
X439417Y1082040D02*
X441957D01*
X440687D01*
Y1089658D01*
X439417Y1088388D01*
X445765Y1082040D02*
X448305D01*
X447035D01*
Y1089658D01*
X445765Y1088388D01*
X518160Y850900D02*
Y858518D01*
X521969D01*
X523238Y857248D01*
Y854709D01*
X521969Y853439D01*
X518160D01*
X520699D02*
X523238Y850900D01*
X525778Y857248D02*
X527047Y858518D01*
X529586D01*
X530856Y857248D01*
Y855978D01*
X529586Y854709D01*
X530856Y853439D01*
Y852170D01*
X529586Y850900D01*
X527047D01*
X525778Y852170D01*
Y853439D01*
X527047Y854709D01*
X525778Y855978D01*
Y857248D01*
X527047Y854709D02*
X529586D01*
X518160Y886460D02*
Y894078D01*
X521969D01*
X523238Y892808D01*
Y890269D01*
X521969Y888999D01*
X518160D01*
X520699D02*
X523238Y886460D01*
X525778Y894078D02*
X530856D01*
Y892808D01*
X525778Y887730D01*
Y886460D01*
X518160Y927100D02*
Y934717D01*
X521969D01*
X523238Y933448D01*
Y930909D01*
X521969Y929639D01*
X518160D01*
X520699D02*
X523238Y927100D01*
X530856Y934717D02*
X528317Y933448D01*
X525778Y930909D01*
Y928370D01*
X527047Y927100D01*
X529586D01*
X530856Y928370D01*
Y929639D01*
X529586Y930909D01*
X525778D01*
X518160Y972820D02*
Y980437D01*
X521969D01*
X523238Y979168D01*
Y976629D01*
X521969Y975359D01*
X518160D01*
X520699D02*
X523238Y972820D01*
X530856Y980437D02*
X525778D01*
Y976629D01*
X528317Y977898D01*
X529586D01*
X530856Y976629D01*
Y974090D01*
X529586Y972820D01*
X527047D01*
X525778Y974090D01*
X396240Y853440D02*
Y861058D01*
X400049D01*
X401318Y859788D01*
Y857249D01*
X400049Y855979D01*
X396240D01*
X398779D02*
X401318Y853440D01*
X407666D02*
Y861058D01*
X403857Y857249D01*
X408936D01*
X396240Y904240D02*
Y911858D01*
X400049D01*
X401318Y910588D01*
Y908049D01*
X400049Y906779D01*
X396240D01*
X398779D02*
X401318Y904240D01*
X403857Y910588D02*
X405127Y911858D01*
X407666D01*
X408936Y910588D01*
Y909318D01*
X407666Y908049D01*
X406397D01*
X407666D01*
X408936Y906779D01*
Y905510D01*
X407666Y904240D01*
X405127D01*
X403857Y905510D01*
X396240Y949960D02*
Y957578D01*
X400049D01*
X401318Y956308D01*
Y953769D01*
X400049Y952499D01*
X396240D01*
X398779D02*
X401318Y949960D01*
X408936D02*
X403857D01*
X408936Y955038D01*
Y956308D01*
X407666Y957578D01*
X405127D01*
X403857Y956308D01*
X396240Y1000760D02*
Y1008378D01*
X400049D01*
X401318Y1007108D01*
Y1004569D01*
X400049Y1003299D01*
X396240D01*
X398779D02*
X401318Y1000760D01*
X403857D02*
X406397D01*
X405127D01*
Y1008378D01*
X403857Y1007108D01*
X767078Y845817D02*
X764539D01*
X765809D01*
Y839470D01*
X764539Y838200D01*
X763270D01*
X762000Y839470D01*
X769617D02*
X770887Y838200D01*
X773426D01*
X774696Y839470D01*
Y844548D01*
X773426Y845817D01*
X770887D01*
X769617Y844548D01*
Y843278D01*
X770887Y842009D01*
X774696D01*
X767078Y886458D02*
X764539D01*
X765809D01*
Y880110D01*
X764539Y878840D01*
X763270D01*
X762000Y880110D01*
X769617Y885188D02*
X770887Y886458D01*
X773426D01*
X774696Y885188D01*
Y883918D01*
X773426Y882649D01*
X774696Y881379D01*
Y880110D01*
X773426Y878840D01*
X770887D01*
X769617Y880110D01*
Y881379D01*
X770887Y882649D01*
X769617Y883918D01*
Y885188D01*
X770887Y882649D02*
X773426D01*
X767078Y927097D02*
X764539D01*
X765809D01*
Y920750D01*
X764539Y919480D01*
X763270D01*
X762000Y920750D01*
X769617Y927097D02*
X774696D01*
Y925828D01*
X769617Y920750D01*
Y919480D01*
X767078Y967738D02*
X764539D01*
X765809D01*
Y961390D01*
X764539Y960120D01*
X763270D01*
X762000Y961390D01*
X774696Y967738D02*
X772157Y966468D01*
X769617Y963929D01*
Y961390D01*
X770887Y960120D01*
X773426D01*
X774696Y961390D01*
Y962659D01*
X773426Y963929D01*
X769617D01*
X355598Y845817D02*
X353059D01*
X354329D01*
Y839470D01*
X353059Y838200D01*
X351790D01*
X350520Y839470D01*
X363216Y845817D02*
X358138D01*
Y842009D01*
X360677Y843278D01*
X361946D01*
X363216Y842009D01*
Y839470D01*
X361946Y838200D01*
X359407D01*
X358138Y839470D01*
X355598Y886458D02*
X353059D01*
X354329D01*
Y880110D01*
X353059Y878840D01*
X351790D01*
X350520Y880110D01*
X361946Y878840D02*
Y886458D01*
X358138Y882649D01*
X363216D01*
X355598Y927097D02*
X353059D01*
X354329D01*
Y920750D01*
X353059Y919480D01*
X351790D01*
X350520Y920750D01*
X358138Y925828D02*
X359407Y927097D01*
X361946D01*
X363216Y925828D01*
Y924558D01*
X361946Y923289D01*
X360677D01*
X361946D01*
X363216Y922019D01*
Y920750D01*
X361946Y919480D01*
X359407D01*
X358138Y920750D01*
X355598Y967738D02*
X353059D01*
X354329D01*
Y961390D01*
X353059Y960120D01*
X351790D01*
X350520Y961390D01*
X363216Y960120D02*
X358138D01*
X363216Y965198D01*
Y966468D01*
X361946Y967738D01*
X359407D01*
X358138Y966468D01*
X383538Y1145537D02*
X380999D01*
X382269D01*
Y1139190D01*
X380999Y1137920D01*
X379730D01*
X378460Y1139190D01*
X386077Y1137920D02*
X388617D01*
X387347D01*
Y1145537D01*
X386077Y1144268D01*
X511084Y1068946D02*
G03*
X508403Y1063887I3354J-5018D01*
G01*
X508400Y1059550D02*
G03*
X511036Y1054536I6035J-27D01*
G01*
X558400Y1063890D02*
G03*
X555764Y1068904I-6035J27D01*
G01*
X555716Y1054494D02*
G03*
X558397Y1059553I-3354J5018D01*
G01*
X552073Y1071073D02*
G03*
X551400Y1071749I-899J-222D01*
G01*
X551590Y1063749D02*
G03*
X552073Y1071073I-109299J10891D01*
G01*
X515210Y1063749D02*
G03*
X514727Y1071073I-1662643J-106042D01*
G01*
X515400Y1071749D02*
G03*
X514727Y1071073I234J-906D01*
G01*
X551590Y1059691D02*
G03*
X552073Y1052367I1664497J106165D01*
G01*
X551400Y1051691D02*
G03*
X552073Y1052367I-234J906D01*
G01*
X514727Y1052367D02*
G03*
X515400Y1051691I899J222D01*
G01*
X515210Y1059691D02*
G03*
X514727Y1052367I109299J-10891D01*
G01*
X513867Y1063749D02*
G03*
X510900Y1066954I-13254J-9298D01*
G01*
X515400Y1071749D02*
G03*
X510900Y1067249I0J-4500D01*
G01*
X551400Y1051691D02*
G03*
X555900Y1056191I0J4500D01*
G01*
Y1067249D02*
G03*
X551400Y1071749I-4500J0D01*
G01*
X510900Y1056191D02*
G03*
X515400Y1051691I4500J0D01*
G01*
X508400Y1064720D02*
G03*
X508400Y1058720I0J-3000D01*
G01*
X558400D02*
G03*
X558400Y1064720I0J3000D01*
G01*
X424724Y1038466D02*
G03*
X422043Y1033407I3354J-5018D01*
G01*
X422040Y1029070D02*
G03*
X424676Y1024056I6035J-27D01*
G01*
X472040Y1033410D02*
G03*
X469404Y1038424I-6035J27D01*
G01*
X469356Y1024014D02*
G03*
X472037Y1029073I-3354J5018D01*
G01*
X465713Y1040593D02*
G03*
X465040Y1041269I-899J-222D01*
G01*
X465230Y1033269D02*
G03*
X465713Y1040593I-109299J10891D01*
G01*
X428850Y1033269D02*
G03*
X428367Y1040593I-1662643J-106042D01*
G01*
X429040Y1041269D02*
G03*
X428367Y1040593I234J-906D01*
G01*
X465230Y1029211D02*
G03*
X465713Y1021887I1664497J106165D01*
G01*
X465040Y1021211D02*
G03*
X465713Y1021887I-234J906D01*
G01*
X428367Y1021887D02*
G03*
X429040Y1021211I899J222D01*
G01*
X428850Y1029211D02*
G03*
X428367Y1021887I109299J-10891D01*
G01*
X427507Y1033269D02*
G03*
X424540Y1036473I-13254J-9298D01*
G01*
X429040Y1041269D02*
G03*
X424540Y1036769I0J-4500D01*
G01*
X465040Y1021211D02*
G03*
X469540Y1025711I0J4500D01*
G01*
Y1036769D02*
G03*
X465040Y1041269I-4500J0D01*
G01*
X424540Y1025711D02*
G03*
X429040Y1021211I4500J0D01*
G01*
X422040Y1034240D02*
G03*
X422040Y1028240I0J-3000D01*
G01*
X472040D02*
G03*
X472040Y1034240I0J3000D01*
G01*
X511084Y1038466D02*
G03*
X508403Y1033407I3354J-5018D01*
G01*
X508400Y1029070D02*
G03*
X511036Y1024056I6035J-27D01*
G01*
X558400Y1033410D02*
G03*
X555764Y1038424I-6035J27D01*
G01*
X555716Y1024014D02*
G03*
X558397Y1029073I-3354J5018D01*
G01*
X552073Y1040593D02*
G03*
X551400Y1041269I-899J-222D01*
G01*
X551590Y1033269D02*
G03*
X552073Y1040593I-109299J10891D01*
G01*
X515210Y1033269D02*
G03*
X514727Y1040593I-1662643J-106042D01*
G01*
X515400Y1041269D02*
G03*
X514727Y1040593I234J-906D01*
G01*
X551590Y1029211D02*
G03*
X552073Y1021887I1664497J106165D01*
G01*
X551400Y1021211D02*
G03*
X552073Y1021887I-234J906D01*
G01*
X514727Y1021887D02*
G03*
X515400Y1021211I899J222D01*
G01*
X515210Y1029211D02*
G03*
X514727Y1021887I109299J-10891D01*
G01*
X513867Y1033269D02*
G03*
X510900Y1036473I-13254J-9298D01*
G01*
X515400Y1041269D02*
G03*
X510900Y1036769I0J-4500D01*
G01*
X551400Y1021211D02*
G03*
X555900Y1025711I0J4500D01*
G01*
Y1036769D02*
G03*
X551400Y1041269I-4500J0D01*
G01*
X510900Y1025711D02*
G03*
X515400Y1021211I4500J0D01*
G01*
X508400Y1034240D02*
G03*
X508400Y1028240I0J-3000D01*
G01*
X558400D02*
G03*
X558400Y1034240I0J3000D01*
G01*
X424724Y1068946D02*
G03*
X422043Y1063887I3354J-5018D01*
G01*
X422040Y1059550D02*
G03*
X424676Y1054536I6035J-27D01*
G01*
X472040Y1063890D02*
G03*
X469404Y1068904I-6035J27D01*
G01*
X469356Y1054494D02*
G03*
X472037Y1059553I-3354J5018D01*
G01*
X465713Y1071073D02*
G03*
X465040Y1071749I-899J-222D01*
G01*
X465230Y1063749D02*
G03*
X465713Y1071073I-109299J10891D01*
G01*
X428850Y1063749D02*
G03*
X428367Y1071073I-1662643J-106042D01*
G01*
X429040Y1071749D02*
G03*
X428367Y1071073I234J-906D01*
G01*
X465230Y1059691D02*
G03*
X465713Y1052367I1664497J106165D01*
G01*
X465040Y1051691D02*
G03*
X465713Y1052367I-234J906D01*
G01*
X428367Y1052367D02*
G03*
X429040Y1051691I899J222D01*
G01*
X428850Y1059691D02*
G03*
X428367Y1052367I109299J-10891D01*
G01*
X427507Y1063749D02*
G03*
X424540Y1066954I-13254J-9298D01*
G01*
X429040Y1071749D02*
G03*
X424540Y1067249I0J-4500D01*
G01*
X465040Y1051691D02*
G03*
X469540Y1056191I0J4500D01*
G01*
Y1067249D02*
G03*
X465040Y1071749I-4500J0D01*
G01*
X424540Y1056191D02*
G03*
X429040Y1051691I4500J0D01*
G01*
X422040Y1064720D02*
G03*
X422040Y1058720I0J-3000D01*
G01*
X472040D02*
G03*
X472040Y1064720I0J3000D01*
G01*
X489676Y871614D02*
G03*
X492357Y876673I-3354J5018D01*
G01*
X492360Y881010D02*
G03*
X489724Y886024I-6035J27D01*
G01*
X442360Y876670D02*
G03*
X444996Y871656I6035J-27D01*
G01*
X445044Y886066D02*
G03*
X442363Y881007I3354J-5018D01*
G01*
X448687Y869487D02*
G03*
X449360Y868811I899J222D01*
G01*
X449170Y876811D02*
G03*
X448687Y869487I109299J-10891D01*
G01*
X485550Y876811D02*
G03*
X486033Y869487I1662643J106042D01*
G01*
X485360Y868811D02*
G03*
X486033Y869487I-234J906D01*
G01*
X449170Y880869D02*
G03*
X448687Y888193I-1664497J-106165D01*
G01*
X449360Y888869D02*
G03*
X448687Y888193I234J-906D01*
G01*
X486033Y888193D02*
G03*
X485360Y888869I-899J-222D01*
G01*
X485550Y880869D02*
G03*
X486033Y888193I-109299J10891D01*
G01*
X486893Y876811D02*
G03*
X489860Y873606I13254J9298D01*
G01*
X485360Y868811D02*
G03*
X489860Y873311I0J4500D01*
G01*
X449360Y888869D02*
G03*
X444860Y884369I0J-4500D01*
G01*
Y873311D02*
G03*
X449360Y868811I4500J0D01*
G01*
X489860Y884369D02*
G03*
X485360Y888869I-4500J0D01*
G01*
X492360Y875840D02*
G03*
X492360Y881840I0J3000D01*
G01*
X442360D02*
G03*
X442360Y875840I0J-3000D01*
G01*
X489676Y820814D02*
G03*
X492357Y825873I-3354J5018D01*
G01*
X492360Y830210D02*
G03*
X489724Y835224I-6035J27D01*
G01*
X442360Y825870D02*
G03*
X444996Y820856I6035J-27D01*
G01*
X445044Y835266D02*
G03*
X442363Y830207I3354J-5018D01*
G01*
X448687Y818687D02*
G03*
X449360Y818011I899J222D01*
G01*
X449170Y826011D02*
G03*
X448687Y818687I109299J-10891D01*
G01*
X485550Y826011D02*
G03*
X486033Y818687I1662643J106042D01*
G01*
X485360Y818011D02*
G03*
X486033Y818687I-234J906D01*
G01*
X449170Y830069D02*
G03*
X448687Y837393I-1664497J-106165D01*
G01*
X449360Y838069D02*
G03*
X448687Y837393I234J-906D01*
G01*
X486033Y837393D02*
G03*
X485360Y838069I-899J-222D01*
G01*
X485550Y830069D02*
G03*
X486033Y837393I-109299J10891D01*
G01*
X486893Y826011D02*
G03*
X489860Y822806I13254J9298D01*
G01*
X485360Y818011D02*
G03*
X489860Y822511I0J4500D01*
G01*
X449360Y838069D02*
G03*
X444860Y833569I0J-4500D01*
G01*
Y822511D02*
G03*
X449360Y818011I4500J0D01*
G01*
X489860Y833569D02*
G03*
X485360Y838069I-4500J0D01*
G01*
X492360Y825040D02*
G03*
X492360Y831040I0J3000D01*
G01*
X442360D02*
G03*
X442360Y825040I0J-3000D01*
G01*
X489676Y922414D02*
G03*
X492357Y927473I-3354J5018D01*
G01*
X492360Y931810D02*
G03*
X489724Y936824I-6035J27D01*
G01*
X442360Y927470D02*
G03*
X444996Y922456I6035J-27D01*
G01*
X445044Y936866D02*
G03*
X442363Y931807I3354J-5018D01*
G01*
X448687Y920287D02*
G03*
X449360Y919611I899J222D01*
G01*
X449170Y927611D02*
G03*
X448687Y920287I109299J-10891D01*
G01*
X485550Y927611D02*
G03*
X486033Y920287I1662643J106042D01*
G01*
X485360Y919611D02*
G03*
X486033Y920287I-234J906D01*
G01*
X449170Y931669D02*
G03*
X448687Y938993I-1664497J-106165D01*
G01*
X449360Y939669D02*
G03*
X448687Y938993I234J-906D01*
G01*
X486033Y938993D02*
G03*
X485360Y939669I-899J-222D01*
G01*
X485550Y931669D02*
G03*
X486033Y938993I-109299J10891D01*
G01*
X486893Y927611D02*
G03*
X489860Y924407I13254J9298D01*
G01*
X485360Y919611D02*
G03*
X489860Y924111I0J4500D01*
G01*
X449360Y939669D02*
G03*
X444860Y935169I0J-4500D01*
G01*
Y924111D02*
G03*
X449360Y919611I4500J0D01*
G01*
X489860Y935169D02*
G03*
X485360Y939669I-4500J0D01*
G01*
X492360Y926640D02*
G03*
X492360Y932640I0J3000D01*
G01*
X442360D02*
G03*
X442360Y926640I0J-3000D01*
G01*
X489676Y973214D02*
G03*
X492357Y978273I-3354J5018D01*
G01*
X492360Y982610D02*
G03*
X489724Y987624I-6035J27D01*
G01*
X442360Y978270D02*
G03*
X444996Y973256I6035J-27D01*
G01*
X445044Y987666D02*
G03*
X442363Y982607I3354J-5018D01*
G01*
X448687Y971087D02*
G03*
X449360Y970411I899J222D01*
G01*
X449170Y978411D02*
G03*
X448687Y971087I109299J-10891D01*
G01*
X485550Y978411D02*
G03*
X486033Y971087I1662643J106042D01*
G01*
X485360Y970411D02*
G03*
X486033Y971087I-234J906D01*
G01*
X449170Y982469D02*
G03*
X448687Y989793I-1664497J-106165D01*
G01*
X449360Y990469D02*
G03*
X448687Y989793I234J-906D01*
G01*
X486033Y989793D02*
G03*
X485360Y990469I-899J-222D01*
G01*
X485550Y982469D02*
G03*
X486033Y989793I-109299J10891D01*
G01*
X486893Y978411D02*
G03*
X489860Y975207I13254J9298D01*
G01*
X485360Y970411D02*
G03*
X489860Y974911I0J4500D01*
G01*
X449360Y990469D02*
G03*
X444860Y985969I0J-4500D01*
G01*
Y974911D02*
G03*
X449360Y970411I4500J0D01*
G01*
X489860Y985969D02*
G03*
X485360Y990469I-4500J0D01*
G01*
X492360Y977440D02*
G03*
X492360Y983440I0J3000D01*
G01*
X442360D02*
G03*
X442360Y977440I0J-3000D01*
G01*
X511082Y1054495D02*
X511150Y1054448D01*
X511353Y1054299D01*
X511101Y1068958D02*
X511340Y1069130D01*
X511085Y1068946D02*
X511101Y1068958D01*
X555650Y1068991D02*
X555721Y1068948D01*
X555447Y1069141D02*
X555650Y1068991D01*
X555460Y1054310D02*
X555699Y1054482D01*
X555715Y1054494D01*
X552933Y1059690D02*
X552962Y1059493D01*
X553068Y1059260D01*
X553257Y1059007D01*
X553466Y1058793D01*
X554133Y1058231D01*
X554745Y1057754D01*
X555265Y1057325D01*
X555647Y1056952D01*
X555835Y1056696D01*
X555900Y1056487D01*
X555801Y1066687D02*
X555900Y1066953D01*
X555499Y1066333D02*
X555801Y1066687D01*
X554969Y1065866D02*
X555499Y1066333D01*
X554234Y1065288D02*
X554969Y1065866D01*
X553855Y1064988D02*
X554234Y1065288D01*
X553464Y1064645D02*
X553855Y1064988D01*
X553231Y1064403D02*
X553464Y1064645D01*
X553023Y1064100D02*
X553231Y1064403D01*
X552950Y1063904D02*
X553023Y1064100D01*
X552933Y1063749D02*
X552950Y1063904D01*
X510900Y1056487D02*
X510925Y1056609D01*
X510999Y1056753D01*
X511125Y1056920D01*
X511301Y1057107D01*
X511540Y1057329D01*
X511831Y1057574D01*
X512176Y1057849D01*
X512566Y1058152D01*
X512942Y1058451D01*
X513336Y1058795D01*
X513454Y1058912D01*
X513569Y1059038D01*
X513679Y1059178D01*
X513777Y1059341D01*
X513818Y1059434D01*
X513850Y1059536D01*
X513863Y1059612D01*
X513867Y1059690D01*
X508400Y1059550D02*
X508403Y1063887D01*
X558397Y1059553D02*
X558400Y1063890D01*
X513867Y1063749D02*
X552933D01*
X515400Y1071749D02*
X551400D01*
X515400Y1051691D02*
X551400D01*
X513867Y1059690D02*
X552933D01*
X551590D02*
Y1063749D01*
X515210Y1059690D02*
Y1063749D01*
X513867Y1059690D02*
Y1063749D01*
X552933Y1059690D02*
Y1063749D01*
X555900Y1056190D02*
Y1067250D01*
X510900Y1056190D02*
Y1067250D01*
X424721Y1024015D02*
X424790Y1023969D01*
X424993Y1023819D01*
X424741Y1038477D02*
X424980Y1038650D01*
X424725Y1038466D02*
X424741Y1038477D01*
X469290Y1038512D02*
X469361Y1038468D01*
X469087Y1038661D02*
X469290Y1038512D01*
X469100Y1023830D02*
X469339Y1024003D01*
X469355Y1024014D01*
X466573Y1029211D02*
X466602Y1029013D01*
X466708Y1028780D01*
X466897Y1028527D01*
X467106Y1028313D01*
X467774Y1027750D01*
X468385Y1027274D01*
X468905Y1026845D01*
X469287Y1026472D01*
X469475Y1026216D01*
X469540Y1026007D01*
X469441Y1036207D02*
X469540Y1036473D01*
X469140Y1035853D02*
X469441Y1036207D01*
X468609Y1035386D02*
X469140Y1035853D01*
X467874Y1034808D02*
X468609Y1035386D01*
X467495Y1034509D02*
X467874Y1034808D01*
X467104Y1034165D02*
X467495Y1034509D01*
X466871Y1033923D02*
X467104Y1034165D01*
X466663Y1033620D02*
X466871Y1033923D01*
X466590Y1033424D02*
X466663Y1033620D01*
X466573Y1033270D02*
X466590Y1033424D01*
X424540Y1026007D02*
X424565Y1026130D01*
X424639Y1026273D01*
X424765Y1026440D01*
X424940Y1026627D01*
X425180Y1026849D01*
X425471Y1027094D01*
X425816Y1027368D01*
X426206Y1027672D01*
X426582Y1027971D01*
X426977Y1028315D01*
X427094Y1028432D01*
X427209Y1028558D01*
X427319Y1028699D01*
X427417Y1028860D01*
X427458Y1028953D01*
X427490Y1029056D01*
X427503Y1029132D01*
X427507Y1029211D01*
X422040Y1029070D02*
X422043Y1033407D01*
X472037Y1029073D02*
X472040Y1033410D01*
X427507Y1033270D02*
X466573D01*
X429040Y1041269D02*
X465040D01*
X429040Y1021211D02*
X465040D01*
X427507Y1029211D02*
X466573D01*
X465230D02*
Y1033270D01*
X428850Y1029211D02*
Y1033270D01*
X427507Y1029211D02*
Y1033270D01*
X466573Y1029211D02*
Y1033270D01*
X469540Y1025710D02*
Y1036770D01*
X424540Y1025710D02*
Y1036770D01*
X511082Y1024015D02*
X511150Y1023969D01*
X511353Y1023819D01*
X511101Y1038477D02*
X511340Y1038650D01*
X511085Y1038466D02*
X511101Y1038477D01*
X555650Y1038512D02*
X555721Y1038468D01*
X555447Y1038661D02*
X555650Y1038512D01*
X555460Y1023830D02*
X555699Y1024003D01*
X555715Y1024014D01*
X552933Y1029211D02*
X552962Y1029013D01*
X553068Y1028780D01*
X553257Y1028527D01*
X553466Y1028313D01*
X554133Y1027750D01*
X554745Y1027274D01*
X555265Y1026845D01*
X555647Y1026472D01*
X555835Y1026216D01*
X555900Y1026007D01*
X555801Y1036207D02*
X555900Y1036473D01*
X555499Y1035853D02*
X555801Y1036207D01*
X554969Y1035386D02*
X555499Y1035853D01*
X554234Y1034808D02*
X554969Y1035386D01*
X553855Y1034509D02*
X554234Y1034808D01*
X553464Y1034165D02*
X553855Y1034509D01*
X553231Y1033923D02*
X553464Y1034165D01*
X553023Y1033620D02*
X553231Y1033923D01*
X552950Y1033424D02*
X553023Y1033620D01*
X552933Y1033270D02*
X552950Y1033424D01*
X510900Y1026007D02*
X510925Y1026130D01*
X510999Y1026273D01*
X511125Y1026440D01*
X511301Y1026627D01*
X511540Y1026849D01*
X511831Y1027094D01*
X512176Y1027368D01*
X512566Y1027672D01*
X512942Y1027971D01*
X513336Y1028315D01*
X513454Y1028432D01*
X513569Y1028558D01*
X513679Y1028699D01*
X513777Y1028860D01*
X513818Y1028953D01*
X513850Y1029056D01*
X513863Y1029132D01*
X513867Y1029211D01*
X508400Y1029070D02*
X508403Y1033407D01*
X558397Y1029073D02*
X558400Y1033410D01*
X513867Y1033270D02*
X552933D01*
X515400Y1041269D02*
X551400D01*
X515400Y1021211D02*
X551400D01*
X513867Y1029211D02*
X552933D01*
X551590D02*
Y1033270D01*
X515210Y1029211D02*
Y1033270D01*
X513867Y1029211D02*
Y1033270D01*
X552933Y1029211D02*
Y1033270D01*
X555900Y1025710D02*
Y1036770D01*
X510900Y1025710D02*
Y1036770D01*
X424721Y1054495D02*
X424790Y1054448D01*
X424993Y1054299D01*
X424741Y1068958D02*
X424980Y1069130D01*
X424725Y1068946D02*
X424741Y1068958D01*
X469290Y1068991D02*
X469361Y1068948D01*
X469087Y1069141D02*
X469290Y1068991D01*
X469100Y1054310D02*
X469339Y1054482D01*
X469355Y1054494D01*
X466573Y1059690D02*
X466602Y1059493D01*
X466708Y1059260D01*
X466897Y1059007D01*
X467106Y1058793D01*
X467774Y1058231D01*
X468385Y1057754D01*
X468905Y1057325D01*
X469287Y1056952D01*
X469475Y1056696D01*
X469540Y1056487D01*
X469441Y1066687D02*
X469540Y1066953D01*
X469140Y1066333D02*
X469441Y1066687D01*
X468609Y1065866D02*
X469140Y1066333D01*
X467874Y1065288D02*
X468609Y1065866D01*
X467495Y1064988D02*
X467874Y1065288D01*
X467104Y1064645D02*
X467495Y1064988D01*
X466871Y1064403D02*
X467104Y1064645D01*
X466663Y1064100D02*
X466871Y1064403D01*
X466590Y1063904D02*
X466663Y1064100D01*
X466573Y1063749D02*
X466590Y1063904D01*
X424540Y1056487D02*
X424565Y1056609D01*
X424639Y1056753D01*
X424765Y1056920D01*
X424940Y1057107D01*
X425180Y1057329D01*
X425471Y1057574D01*
X425816Y1057849D01*
X426206Y1058152D01*
X426582Y1058451D01*
X426977Y1058795D01*
X427094Y1058912D01*
X427209Y1059038D01*
X427319Y1059178D01*
X427417Y1059341D01*
X427458Y1059434D01*
X427490Y1059536D01*
X427503Y1059612D01*
X427507Y1059690D01*
X422040Y1059550D02*
X422043Y1063887D01*
X472037Y1059553D02*
X472040Y1063890D01*
X427507Y1063749D02*
X466573D01*
X429040Y1071749D02*
X465040D01*
X429040Y1051691D02*
X465040D01*
X427507Y1059690D02*
X466573D01*
X465230D02*
Y1063749D01*
X428850Y1059690D02*
Y1063749D01*
X427507Y1059690D02*
Y1063749D01*
X466573Y1059690D02*
Y1063749D01*
X469540Y1056190D02*
Y1067250D01*
X424540Y1056190D02*
Y1067250D01*
X489610Y886112D02*
X489678Y886065D01*
X489407Y886261D02*
X489610Y886112D01*
X489420Y871430D02*
X489659Y871602D01*
X489675Y871614D01*
X445039Y871612D02*
X445110Y871569D01*
X445313Y871419D01*
X445061Y886077D02*
X445300Y886250D01*
X445045Y886066D02*
X445061Y886077D01*
X447798Y881067D02*
X447827Y880870D01*
X447692Y881300D02*
X447798Y881067D01*
X447503Y881553D02*
X447692Y881300D01*
X447294Y881767D02*
X447503Y881553D01*
X446627Y882329D02*
X447294Y881767D01*
X446015Y882806D02*
X446627Y882329D01*
X445495Y883235D02*
X446015Y882806D01*
X445113Y883608D02*
X445495Y883235D01*
X444925Y883864D02*
X445113Y883608D01*
X444860Y884073D02*
X444925Y883864D01*
X444860Y873607D02*
X444959Y873873D01*
X445261Y874227D01*
X445791Y874694D01*
X446526Y875272D01*
X446905Y875572D01*
X447296Y875915D01*
X447529Y876158D01*
X447737Y876460D01*
X447810Y876656D01*
X447827Y876811D01*
X489835Y883951D02*
X489860Y884073D01*
X489761Y883807D02*
X489835Y883951D01*
X489635Y883640D02*
X489761Y883807D01*
X489459Y883453D02*
X489635Y883640D01*
X489221Y883231D02*
X489459Y883453D01*
X488929Y882986D02*
X489221Y883231D01*
X488584Y882711D02*
X488929Y882986D01*
X488194Y882408D02*
X488584Y882711D01*
X487818Y882109D02*
X488194Y882408D01*
X487424Y881765D02*
X487818Y882109D01*
X487306Y881648D02*
X487424Y881765D01*
X487191Y881523D02*
X487306Y881648D01*
X487081Y881382D02*
X487191Y881523D01*
X486983Y881219D02*
X487081Y881382D01*
X486942Y881126D02*
X486983Y881219D01*
X486910Y881024D02*
X486942Y881126D01*
X486897Y880948D02*
X486910Y881024D01*
X486893Y880870D02*
X486897Y880948D01*
X492357Y876673D02*
X492360Y881010D01*
X442360Y876670D02*
X442363Y881007D01*
X447827Y876811D02*
X486893D01*
X449360Y868811D02*
X485360D01*
X449360Y888869D02*
X485360D01*
X447827Y880870D02*
X486893D01*
X449170Y876811D02*
Y880870D01*
X485550Y876811D02*
Y880870D01*
X486893Y876811D02*
Y880870D01*
X447827Y876811D02*
Y880870D01*
X444860Y873310D02*
Y884370D01*
X489860Y873310D02*
Y884370D01*
X489610Y835312D02*
X489678Y835265D01*
X489407Y835461D02*
X489610Y835312D01*
X489420Y820630D02*
X489659Y820803D01*
X489675Y820814D01*
X445039Y820812D02*
X445110Y820769D01*
X445313Y820619D01*
X445061Y835277D02*
X445300Y835450D01*
X445045Y835266D02*
X445061Y835277D01*
X447798Y830267D02*
X447827Y830070D01*
X447692Y830500D02*
X447798Y830267D01*
X447503Y830753D02*
X447692Y830500D01*
X447294Y830967D02*
X447503Y830753D01*
X446627Y831529D02*
X447294Y830967D01*
X446015Y832006D02*
X446627Y831529D01*
X445495Y832435D02*
X446015Y832006D01*
X445113Y832808D02*
X445495Y832435D01*
X444925Y833064D02*
X445113Y832808D01*
X444860Y833273D02*
X444925Y833064D01*
X444860Y822807D02*
X444959Y823073D01*
X445261Y823427D01*
X445791Y823894D01*
X446526Y824472D01*
X446905Y824771D01*
X447296Y825115D01*
X447529Y825358D01*
X447737Y825660D01*
X447810Y825856D01*
X447827Y826011D01*
X489835Y833150D02*
X489860Y833273D01*
X489761Y833007D02*
X489835Y833150D01*
X489635Y832840D02*
X489761Y833007D01*
X489459Y832653D02*
X489635Y832840D01*
X489221Y832431D02*
X489459Y832653D01*
X488929Y832186D02*
X489221Y832431D01*
X488584Y831911D02*
X488929Y832186D01*
X488194Y831608D02*
X488584Y831911D01*
X487818Y831309D02*
X488194Y831608D01*
X487424Y830965D02*
X487818Y831309D01*
X487306Y830848D02*
X487424Y830965D01*
X487191Y830723D02*
X487306Y830848D01*
X487081Y830582D02*
X487191Y830723D01*
X486983Y830419D02*
X487081Y830582D01*
X486942Y830327D02*
X486983Y830419D01*
X486910Y830224D02*
X486942Y830327D01*
X486897Y830148D02*
X486910Y830224D01*
X486893Y830070D02*
X486897Y830148D01*
X492357Y825873D02*
X492360Y830210D01*
X442360Y825870D02*
X442363Y830207D01*
X447827Y826011D02*
X486893D01*
X449360Y818011D02*
X485360D01*
X449360Y838069D02*
X485360D01*
X447827Y830070D02*
X486893D01*
X449170Y826011D02*
Y830070D01*
X485550Y826011D02*
Y830070D01*
X486893Y826011D02*
Y830070D01*
X447827Y826011D02*
Y830070D01*
X444860Y822510D02*
Y833570D01*
X489860Y822510D02*
Y833570D01*
X489610Y936911D02*
X489678Y936865D01*
X489407Y937061D02*
X489610Y936911D01*
X489420Y922230D02*
X489659Y922402D01*
X489675Y922414D01*
X445039Y922412D02*
X445110Y922368D01*
X445313Y922219D01*
X445061Y936878D02*
X445300Y937050D01*
X445045Y936866D02*
X445061Y936878D01*
X447798Y931867D02*
X447827Y931669D01*
X447692Y932100D02*
X447798Y931867D01*
X447503Y932353D02*
X447692Y932100D01*
X447294Y932567D02*
X447503Y932353D01*
X446627Y933130D02*
X447294Y932567D01*
X446015Y933606D02*
X446627Y933130D01*
X445495Y934035D02*
X446015Y933606D01*
X445113Y934408D02*
X445495Y934035D01*
X444925Y934664D02*
X445113Y934408D01*
X444860Y934873D02*
X444925Y934664D01*
X444860Y924407D02*
X444959Y924673D01*
X445261Y925027D01*
X445791Y925494D01*
X446526Y926072D01*
X446905Y926372D01*
X447296Y926715D01*
X447529Y926958D01*
X447737Y927261D01*
X447810Y927456D01*
X447827Y927610D01*
X489835Y934751D02*
X489860Y934873D01*
X489761Y934607D02*
X489835Y934751D01*
X489635Y934440D02*
X489761Y934607D01*
X489459Y934253D02*
X489635Y934440D01*
X489221Y934031D02*
X489459Y934253D01*
X488929Y933786D02*
X489221Y934031D01*
X488584Y933512D02*
X488929Y933786D01*
X488194Y933208D02*
X488584Y933512D01*
X487818Y932909D02*
X488194Y933208D01*
X487424Y932565D02*
X487818Y932909D01*
X487306Y932448D02*
X487424Y932565D01*
X487191Y932323D02*
X487306Y932448D01*
X487081Y932181D02*
X487191Y932323D01*
X486983Y932020D02*
X487081Y932181D01*
X486942Y931926D02*
X486983Y932020D01*
X486910Y931824D02*
X486942Y931926D01*
X486897Y931748D02*
X486910Y931824D01*
X486893Y931669D02*
X486897Y931748D01*
X492357Y927473D02*
X492360Y931810D01*
X442360Y927470D02*
X442363Y931807D01*
X447827Y927610D02*
X486893D01*
X449360Y919611D02*
X485360D01*
X449360Y939669D02*
X485360D01*
X447827Y931669D02*
X486893D01*
X449170Y927610D02*
Y931669D01*
X485550Y927610D02*
Y931669D01*
X486893Y927610D02*
Y931669D01*
X447827Y927610D02*
Y931669D01*
X444860Y924110D02*
Y935170D01*
X489860Y924110D02*
Y935170D01*
X489610Y987711D02*
X489678Y987665D01*
X489407Y987861D02*
X489610Y987711D01*
X489420Y973030D02*
X489659Y973203D01*
X489675Y973214D01*
X445039Y973212D02*
X445110Y973168D01*
X445313Y973019D01*
X445061Y987678D02*
X445300Y987850D01*
X445045Y987666D02*
X445061Y987678D01*
X447798Y982667D02*
X447827Y982469D01*
X447692Y982900D02*
X447798Y982667D01*
X447503Y983153D02*
X447692Y982900D01*
X447294Y983367D02*
X447503Y983153D01*
X446627Y983930D02*
X447294Y983367D01*
X446015Y984406D02*
X446627Y983930D01*
X445495Y984835D02*
X446015Y984406D01*
X445113Y985208D02*
X445495Y984835D01*
X444925Y985464D02*
X445113Y985208D01*
X444860Y985673D02*
X444925Y985464D01*
X444860Y975207D02*
X444959Y975473D01*
X445261Y975827D01*
X445791Y976294D01*
X446526Y976872D01*
X446905Y977171D01*
X447296Y977515D01*
X447529Y977758D01*
X447737Y978061D01*
X447810Y978256D01*
X447827Y978410D01*
X489835Y985551D02*
X489860Y985673D01*
X489761Y985407D02*
X489835Y985551D01*
X489635Y985240D02*
X489761Y985407D01*
X489459Y985053D02*
X489635Y985240D01*
X489221Y984831D02*
X489459Y985053D01*
X488929Y984586D02*
X489221Y984831D01*
X488584Y984312D02*
X488929Y984586D01*
X488194Y984008D02*
X488584Y984312D01*
X487818Y983709D02*
X488194Y984008D01*
X487424Y983365D02*
X487818Y983709D01*
X487306Y983248D02*
X487424Y983365D01*
X487191Y983123D02*
X487306Y983248D01*
X487081Y982981D02*
X487191Y983123D01*
X486983Y982820D02*
X487081Y982981D01*
X486942Y982727D02*
X486983Y982820D01*
X486910Y982624D02*
X486942Y982727D01*
X486897Y982548D02*
X486910Y982624D01*
X486893Y982469D02*
X486897Y982548D01*
X492357Y978273D02*
X492360Y982610D01*
X442360Y978270D02*
X442363Y982607D01*
X447827Y978410D02*
X486893D01*
X449360Y970411D02*
X485360D01*
X449360Y990469D02*
X485360D01*
X447827Y982469D02*
X486893D01*
X449170Y978410D02*
Y982469D01*
X485550Y978410D02*
Y982469D01*
X486893Y978410D02*
Y982469D01*
X447827Y978410D02*
Y982469D01*
X444860Y974910D02*
Y985970D01*
X489860Y974910D02*
Y985970D01*
D12*
X796918Y1059180D02*
Y1135380D01*
X767718D02*
X796918D01*
X767718Y1059180D02*
Y1135380D01*
Y1059180D02*
X796918D01*
X678180Y828682D02*
X754380D01*
Y857883D01*
X678180D02*
X754380D01*
X678180Y828682D02*
Y857883D01*
Y869322D02*
X754380D01*
Y898522D01*
X678180D02*
X754380D01*
X678180Y869322D02*
Y898522D01*
Y909962D02*
X754380D01*
Y939163D01*
X678180D02*
X754380D01*
X678180Y909962D02*
Y939163D01*
Y950602D02*
X754380D01*
Y979802D01*
X678180D02*
X754380D01*
X678180Y950602D02*
Y979802D01*
X266700Y857878D02*
X342900D01*
X266700Y828678D02*
Y857878D01*
Y828678D02*
X342900D01*
Y857878D01*
X266700Y897876D02*
X342900D01*
X266700Y868675D02*
Y897876D01*
Y868675D02*
X342900D01*
Y897876D01*
X266700Y938516D02*
X342900D01*
X266700Y909315D02*
Y938516D01*
Y909315D02*
X342900D01*
Y938516D01*
X266700Y979156D02*
X342900D01*
X266700Y949955D02*
Y979156D01*
Y949955D02*
X342900D01*
Y979156D01*
D22*
X609600Y830580D02*
Y838200D01*
X558800D02*
X609600D01*
X558800Y822960D02*
Y838200D01*
Y822960D02*
X609600D01*
Y830580D01*
X556514D02*
X558800D01*
X609600D02*
X611886D01*
X609600Y871220D02*
Y878840D01*
X558800D02*
X609600D01*
X558800Y863600D02*
Y878840D01*
Y863600D02*
X609600D01*
Y871220D01*
X556514D02*
X558800D01*
X609600D02*
X611886D01*
X609600Y911860D02*
Y919480D01*
X558800D02*
X609600D01*
X558800Y904240D02*
Y919480D01*
Y904240D02*
X609600D01*
Y911860D01*
X556514D02*
X558800D01*
X609600D02*
X611886D01*
X609600Y952500D02*
Y960120D01*
X558800D02*
X609600D01*
X558800Y944880D02*
Y960120D01*
Y944880D02*
X609600D01*
Y952500D01*
X556514D02*
X558800D01*
X609600D02*
X611886D01*
X558800Y843280D02*
Y850900D01*
Y843280D02*
X609600D01*
Y858520D01*
X558800D02*
X609600D01*
X558800Y850900D02*
Y858520D01*
X609600Y850900D02*
X611886D01*
X556514D02*
X558800D01*
Y883920D02*
Y891540D01*
Y883920D02*
X609600D01*
Y899160D01*
X558800D02*
X609600D01*
X558800Y891540D02*
Y899160D01*
X609600Y891540D02*
X611886D01*
X556514D02*
X558800D01*
Y924560D02*
Y932180D01*
Y924560D02*
X609600D01*
Y939800D01*
X558800D02*
X609600D01*
X558800Y932180D02*
Y939800D01*
X609600Y932180D02*
X611886D01*
X556514D02*
X558800D01*
Y965200D02*
Y972820D01*
Y965200D02*
X609600D01*
Y980440D01*
X558800D02*
X609600D01*
X558800Y972820D02*
Y980440D01*
X609600Y972820D02*
X611886D01*
X556514D02*
X558800D01*
X482600Y853440D02*
Y861060D01*
X431800D02*
X482600D01*
X431800Y845820D02*
Y861060D01*
Y845820D02*
X482600D01*
Y853440D01*
X429514D02*
X431800D01*
X482600D02*
X484886D01*
X482600Y904240D02*
Y911860D01*
X431800D02*
X482600D01*
X431800Y896620D02*
Y911860D01*
Y896620D02*
X482600D01*
Y904240D01*
X429514D02*
X431800D01*
X482600D02*
X484886D01*
X482600Y955040D02*
Y962660D01*
X431800D02*
X482600D01*
X431800Y947420D02*
Y962660D01*
Y947420D02*
X482600D01*
Y955040D01*
X429514D02*
X431800D01*
X482600D02*
X484886D01*
X482600Y1005840D02*
Y1013460D01*
X431800D02*
X482600D01*
X431800Y998220D02*
Y1013460D01*
Y998220D02*
X482600D01*
Y1005840D01*
X429514D02*
X431800D01*
X482600D02*
X484886D01*
D23*
X731520Y1029970D02*
Y1033780D01*
Y1099820D02*
Y1103630D01*
X718820Y1046480D02*
X744220D01*
Y1033780D02*
Y1099820D01*
X718820Y1033780D02*
X744220D01*
X718820D02*
Y1099820D01*
X744220D01*
X701040Y1029970D02*
Y1033780D01*
Y1099820D02*
Y1103630D01*
X688340Y1046480D02*
X713740D01*
Y1033780D02*
Y1099820D01*
X688340Y1033780D02*
X713740D01*
X688340D02*
Y1099820D01*
X713740D01*
X670560Y1029970D02*
Y1033780D01*
Y1099820D02*
Y1103630D01*
X657860Y1046480D02*
X683260D01*
Y1033780D02*
Y1099820D01*
X657860Y1033780D02*
X683260D01*
X657860D02*
Y1099820D01*
X683260D01*
X640080Y1029970D02*
Y1033780D01*
Y1099820D02*
Y1103630D01*
X627380Y1046480D02*
X652780D01*
Y1033780D02*
Y1099820D01*
X627380Y1033780D02*
X652780D01*
X627380D02*
Y1099820D01*
X652780D01*
D24*
X563880Y1097280D02*
X591820D01*
X594360Y1099820D01*
Y1155700D01*
X563880D02*
X594360D01*
X563880Y1097280D02*
Y1155700D01*
X518160Y1097280D02*
X546100D01*
X548640Y1099820D01*
Y1155700D01*
X518160D02*
X548640D01*
X518160Y1097280D02*
Y1155700D01*
X472440Y1097280D02*
X500380D01*
X502920Y1099820D01*
Y1155700D01*
X472440D02*
X502920D01*
X472440Y1097280D02*
Y1155700D01*
X426720Y1097280D02*
X454660D01*
X457200Y1099820D01*
Y1155700D01*
X426720D02*
X457200D01*
X426720Y1097280D02*
Y1155700D01*
D25*
X254480Y1159600D02*
X368480D01*
Y991600D02*
Y1159600D01*
X254480Y991600D02*
X368480D01*
X254480D02*
Y1159600D01*
D26*
X748792Y1145032D02*
Y1152650D01*
X752601D01*
X753870Y1151380D01*
Y1148841D01*
X752601Y1147571D01*
X748792D01*
X756410Y1150110D02*
Y1146302D01*
X757679Y1145032D01*
X761488D01*
Y1150110D01*
X764027Y1145032D02*
X766566D01*
X765297D01*
Y1152650D01*
X764027D01*
X770375Y1145032D02*
X772914D01*
X771645D01*
Y1152650D01*
X770375D01*
X781801D02*
Y1145032D01*
X777993D01*
X776723Y1146302D01*
Y1148841D01*
X777993Y1150110D01*
X781801D01*
X785610Y1145032D02*
X788149D01*
X789419Y1146302D01*
Y1148841D01*
X788149Y1150110D01*
X785610D01*
X784341Y1148841D01*
Y1146302D01*
X785610Y1145032D01*
X791958Y1150110D02*
Y1146302D01*
X793228Y1145032D01*
X794497Y1146302D01*
X795767Y1145032D01*
X797036Y1146302D01*
Y1150110D01*
X799576Y1145032D02*
Y1150110D01*
X803384D01*
X804654Y1148841D01*
Y1145032D01*
X764032Y1045971D02*
Y1053589D01*
X767841D01*
X769110Y1052319D01*
Y1049780D01*
X767841Y1048510D01*
X764032D01*
X771649Y1051049D02*
Y1047241D01*
X772919Y1045971D01*
X776728D01*
Y1051049D01*
X779267Y1045971D02*
X781806D01*
X780537D01*
Y1053589D01*
X779267D01*
X785615Y1045971D02*
X788154D01*
X786885D01*
Y1053589D01*
X785615D01*
X791963Y1051049D02*
Y1047241D01*
X793233Y1045971D01*
X797041D01*
Y1051049D01*
X799581Y1043432D02*
Y1051049D01*
X803389D01*
X804659Y1049780D01*
Y1047241D01*
X803389Y1045971D01*
X799581D01*
X792990Y830072D02*
Y835150D01*
Y832611D01*
X800608D01*
Y838959D02*
Y841498D01*
X799338Y842768D01*
X796799D01*
X795530Y841498D01*
Y838959D01*
X796799Y837690D01*
X799338D01*
X800608Y838959D01*
X794260Y858003D02*
X792990Y856733D01*
Y854194D01*
X794260Y852925D01*
X799338D01*
X800608Y854194D01*
Y856733D01*
X799338Y858003D01*
X800608Y861812D02*
Y864351D01*
X799338Y865620D01*
X796799D01*
X795530Y864351D01*
Y861812D01*
X796799Y860542D01*
X799338D01*
X800608Y861812D01*
Y868160D02*
X795530D01*
Y871969D01*
X796799Y873238D01*
X800608D01*
X794260Y877047D02*
X795530D01*
Y875777D01*
Y878316D01*
Y877047D01*
X799338D01*
X800608Y878316D01*
X795530Y882125D02*
X800608D01*
X798069D01*
X796799Y883395D01*
X795530Y884664D01*
Y885934D01*
X800608Y891012D02*
Y893551D01*
X799338Y894821D01*
X796799D01*
X795530Y893551D01*
Y891012D01*
X796799Y889743D01*
X799338D01*
X800608Y891012D01*
Y897360D02*
Y899899D01*
Y898630D01*
X792990D01*
Y897360D01*
X800608Y903708D02*
Y906247D01*
Y904978D01*
X792990D01*
Y903708D01*
X800608Y913865D02*
Y911326D01*
X799338Y910056D01*
X796799D01*
X795530Y911326D01*
Y913865D01*
X796799Y915135D01*
X798069D01*
Y910056D01*
X795530Y917674D02*
X800608D01*
X798069D01*
X796799Y918943D01*
X795530Y920213D01*
Y921482D01*
X796799Y932909D02*
Y937987D01*
X792990Y953222D02*
Y948144D01*
X796799D01*
X795530Y950683D01*
Y951953D01*
X796799Y953222D01*
X799338D01*
X800608Y951953D01*
Y949413D01*
X799338Y948144D01*
X792990Y963379D02*
X798069D01*
X800608Y965918D01*
X798069Y968457D01*
X792990D01*
X800608Y972266D02*
Y974805D01*
X799338Y976075D01*
X796799D01*
X795530Y974805D01*
Y972266D01*
X796799Y970996D01*
X799338D01*
X800608Y972266D01*
Y978614D02*
Y981153D01*
Y979883D01*
X792990D01*
Y978614D01*
X794260Y986232D02*
X795530D01*
Y984962D01*
Y987501D01*
Y986232D01*
X799338D01*
X800608Y987501D01*
Y991310D02*
Y995119D01*
X799338Y996388D01*
X798069Y995119D01*
Y992579D01*
X796799Y991310D01*
X795530Y992579D01*
Y996388D01*
X257347Y932690D02*
Y937768D01*
X253539D01*
Y935229D01*
Y937768D01*
X249730D01*
X254808Y930151D02*
X249730D01*
X252269D01*
X253539Y928881D01*
X254808Y927611D01*
Y926342D01*
X249730Y921263D02*
Y918724D01*
X250999Y917455D01*
X253539D01*
X254808Y918724D01*
Y921263D01*
X253539Y922533D01*
X250999D01*
X249730Y921263D01*
Y914915D02*
X254808D01*
Y913646D01*
X253539Y912376D01*
X249730D01*
X253539D01*
X254808Y911107D01*
X253539Y909837D01*
X249730D01*
Y899680D02*
Y897141D01*
Y898411D01*
X257347D01*
X256078Y899680D01*
X249730Y888254D02*
Y893332D01*
X254808Y888254D01*
X256078D01*
X257347Y889524D01*
Y892063D01*
X256078Y893332D01*
X243330Y937768D02*
X238251D01*
X235712Y935229D01*
X238251Y932690D01*
X243330D01*
Y926342D02*
Y928881D01*
X242060Y930151D01*
X236982D01*
X235712Y928881D01*
Y926342D01*
X236982Y925072D01*
X242060D01*
X243330Y926342D01*
Y922533D02*
X235712D01*
Y917455D01*
X243330Y914915D02*
Y909837D01*
Y912376D01*
X235712D01*
X242060Y894602D02*
X243330Y895872D01*
Y898411D01*
X242060Y899680D01*
X240790D01*
X239521Y898411D01*
Y895872D01*
X238251Y894602D01*
X236982D01*
X235712Y895872D01*
Y898411D01*
X236982Y899680D01*
X235712Y888254D02*
Y890793D01*
X236982Y892063D01*
X239521D01*
X240790Y890793D01*
Y888254D01*
X239521Y886984D01*
X238251D01*
Y892063D01*
X235712Y884445D02*
X240790D01*
Y880637D01*
X239521Y879367D01*
X235712D01*
Y876828D02*
Y873019D01*
X236982Y871749D01*
X238251Y873019D01*
Y875558D01*
X239521Y876828D01*
X240790Y875558D01*
Y871749D01*
X235712Y867941D02*
Y865401D01*
X236982Y864132D01*
X239521D01*
X240790Y865401D01*
Y867941D01*
X239521Y869210D01*
X236982D01*
X235712Y867941D01*
X240790Y861593D02*
X235712D01*
X238251D01*
X239521Y860323D01*
X240790Y859053D01*
Y857784D01*
X967232Y29971D02*
X971041D01*
X972310Y31241D01*
X971041Y32510D01*
X968502D01*
X967232Y33780D01*
X968502Y35050D01*
X972310D01*
X974849D02*
Y31241D01*
X976119Y29971D01*
X979928D01*
Y35050D01*
X982467Y27432D02*
Y35050D01*
X986276D01*
X987545Y33780D01*
Y31241D01*
X986276Y29971D01*
X982467D01*
X990085Y27432D02*
Y35050D01*
X993893D01*
X995163Y33780D01*
Y31241D01*
X993893Y29971D01*
X990085D01*
X998972D02*
X1001511D01*
X1002781Y31241D01*
Y33780D01*
X1001511Y35050D01*
X998972D01*
X997702Y33780D01*
Y31241D01*
X998972Y29971D01*
X1005320Y35050D02*
Y29971D01*
Y32510D01*
X1006589Y33780D01*
X1007859Y35050D01*
X1009128D01*
X1014207Y36319D02*
Y35050D01*
X1012937D01*
X1015476D01*
X1014207D01*
Y31241D01*
X1015476Y29971D01*
X1023094Y32510D02*
Y33780D01*
X1021824D01*
Y32510D01*
X1023094D01*
X1024363Y33780D01*
Y36319D01*
X1023094Y37589D01*
X1020555D01*
X1019285Y36319D01*
Y31241D01*
X1020555Y29971D01*
X1024363D01*
X1026903D02*
Y35050D01*
X1030712D01*
X1031981Y33780D01*
Y29971D01*
X1038329D02*
X1035790D01*
X1034520Y31241D01*
Y33780D01*
X1035790Y35050D01*
X1038329D01*
X1039599Y33780D01*
Y32510D01*
X1034520D01*
X1042138Y35050D02*
Y31241D01*
X1043407Y29971D01*
X1047216D01*
Y35050D01*
X1049755D02*
Y29971D01*
Y32510D01*
X1051025Y33780D01*
X1052294Y35050D01*
X1053564D01*
X1058642D02*
X1061182D01*
X1062451Y33780D01*
Y29971D01*
X1058642D01*
X1057373Y31241D01*
X1058642Y32510D01*
X1062451D01*
X1064990Y29971D02*
X1067530D01*
X1066260D01*
Y37589D01*
X1064990D01*
X1076417Y35050D02*
X1072608D01*
X1071338Y33780D01*
Y31241D01*
X1072608Y29971D01*
X1076417D01*
X1078956D02*
X1081495D01*
X1080225D01*
Y37589D01*
X1078956D01*
X1086573Y29971D02*
X1089113D01*
X1090382Y31241D01*
Y33780D01*
X1089113Y35050D01*
X1086573D01*
X1085304Y33780D01*
Y31241D01*
X1086573Y29971D01*
X1092921Y35050D02*
Y31241D01*
X1094191Y29971D01*
X1098000D01*
Y35050D01*
X1105617Y37589D02*
Y29971D01*
X1101808D01*
X1100539Y31241D01*
Y33780D01*
X1101808Y35050D01*
X1105617D01*
X1113235D02*
X1109426D01*
X1108156Y33780D01*
Y31241D01*
X1109426Y29971D01*
X1113235D01*
X1117044D02*
X1119583D01*
X1120852Y31241D01*
Y33780D01*
X1119583Y35050D01*
X1117044D01*
X1115774Y33780D01*
Y31241D01*
X1117044Y29971D01*
X1123391D02*
Y35050D01*
X1124661D01*
X1125931Y33780D01*
Y29971D01*
Y33780D01*
X1127200Y35050D01*
X1128470Y33780D01*
Y29971D01*
X1131009Y27432D02*
Y35050D01*
X1134818D01*
X1136087Y33780D01*
Y31241D01*
X1134818Y29971D01*
X1131009D01*
X1138627Y35050D02*
Y31241D01*
X1139896Y29971D01*
X1143705D01*
Y35050D01*
X1147514Y36319D02*
Y35050D01*
X1146244D01*
X1148783D01*
X1147514D01*
Y31241D01*
X1148783Y29971D01*
X1152592D02*
X1155131D01*
X1153862D01*
Y35050D01*
X1152592D01*
X1158940Y29971D02*
Y35050D01*
X1162749D01*
X1164018Y33780D01*
Y29971D01*
X1169097Y27432D02*
X1170366D01*
X1171636Y28702D01*
Y35050D01*
X1167827D01*
X1166557Y33780D01*
Y31241D01*
X1167827Y29971D01*
X1171636D01*
X1174175D02*
Y31241D01*
X1175445D01*
Y29971D01*
X1174175D01*
X1185601Y35050D02*
X1181793D01*
X1180523Y33780D01*
Y31241D01*
X1181793Y29971D01*
X1185601D01*
X1189410D02*
X1191949D01*
X1193219Y31241D01*
Y33780D01*
X1191949Y35050D01*
X1189410D01*
X1188140Y33780D01*
Y31241D01*
X1189410Y29971D01*
X1195758D02*
Y35050D01*
X1197028D01*
X1198297Y33780D01*
Y29971D01*
Y33780D01*
X1199567Y35050D01*
X1200836Y33780D01*
Y29971D01*
X1018032Y-76709D02*
X1021841D01*
X1023110Y-75439D01*
X1021841Y-74170D01*
X1019302D01*
X1018032Y-72900D01*
X1019302Y-71631D01*
X1023110D01*
X1025649D02*
Y-75439D01*
X1026919Y-76709D01*
X1030728D01*
Y-71631D01*
X1033267Y-79248D02*
Y-71631D01*
X1037076D01*
X1038345Y-72900D01*
Y-75439D01*
X1037076Y-76709D01*
X1033267D01*
X1040885Y-79248D02*
Y-71631D01*
X1044693D01*
X1045963Y-72900D01*
Y-75439D01*
X1044693Y-76709D01*
X1040885D01*
X1049772D02*
X1052311D01*
X1053580Y-75439D01*
Y-72900D01*
X1052311Y-71631D01*
X1049772D01*
X1048502Y-72900D01*
Y-75439D01*
X1049772Y-76709D01*
X1056120Y-71631D02*
Y-76709D01*
Y-74170D01*
X1057389Y-72900D01*
X1058659Y-71631D01*
X1059929D01*
X1065007Y-70361D02*
Y-71631D01*
X1063737D01*
X1066276D01*
X1065007D01*
Y-75439D01*
X1066276Y-76709D01*
X1073894Y-74170D02*
Y-72900D01*
X1072624D01*
Y-74170D01*
X1073894D01*
X1075163Y-72900D01*
Y-70361D01*
X1073894Y-69091D01*
X1071355D01*
X1070085Y-70361D01*
Y-75439D01*
X1071355Y-76709D01*
X1075163D01*
X1077703D02*
Y-71631D01*
X1081512D01*
X1082781Y-72900D01*
Y-76709D01*
X1089129D02*
X1086590D01*
X1085320Y-75439D01*
Y-72900D01*
X1086590Y-71631D01*
X1089129D01*
X1090399Y-72900D01*
Y-74170D01*
X1085320D01*
X1092938Y-71631D02*
Y-75439D01*
X1094207Y-76709D01*
X1098016D01*
Y-71631D01*
X1100555D02*
Y-76709D01*
Y-74170D01*
X1101825Y-72900D01*
X1103094Y-71631D01*
X1104364D01*
X1109442D02*
X1111982D01*
X1113251Y-72900D01*
Y-76709D01*
X1109442D01*
X1108173Y-75439D01*
X1109442Y-74170D01*
X1113251D01*
X1115790Y-76709D02*
X1118330D01*
X1117060D01*
Y-69091D01*
X1115790D01*
X1127217Y-71631D02*
X1123408D01*
X1122138Y-72900D01*
Y-75439D01*
X1123408Y-76709D01*
X1127217D01*
X1129756D02*
X1132295D01*
X1131025D01*
Y-69091D01*
X1129756D01*
X1137373Y-76709D02*
X1139913D01*
X1141182Y-75439D01*
Y-72900D01*
X1139913Y-71631D01*
X1137373D01*
X1136104Y-72900D01*
Y-75439D01*
X1137373Y-76709D01*
X1143721Y-71631D02*
Y-75439D01*
X1144991Y-76709D01*
X1148800D01*
Y-71631D01*
X1156417Y-69091D02*
Y-76709D01*
X1152608D01*
X1151339Y-75439D01*
Y-72900D01*
X1152608Y-71631D01*
X1156417D01*
X1164035D02*
X1160226D01*
X1158956Y-72900D01*
Y-75439D01*
X1160226Y-76709D01*
X1164035D01*
X1167843D02*
X1170383D01*
X1171652Y-75439D01*
Y-72900D01*
X1170383Y-71631D01*
X1167843D01*
X1166574Y-72900D01*
Y-75439D01*
X1167843Y-76709D01*
X1174192D02*
Y-71631D01*
X1175461D01*
X1176731Y-72900D01*
Y-76709D01*
Y-72900D01*
X1178000Y-71631D01*
X1179270Y-72900D01*
Y-76709D01*
X1181809Y-79248D02*
Y-71631D01*
X1185618D01*
X1186887Y-72900D01*
Y-75439D01*
X1185618Y-76709D01*
X1181809D01*
X1189427Y-71631D02*
Y-75439D01*
X1190696Y-76709D01*
X1194505D01*
Y-71631D01*
X1198314Y-70361D02*
Y-71631D01*
X1197044D01*
X1199583D01*
X1198314D01*
Y-75439D01*
X1199583Y-76709D01*
X1203392D02*
X1205931D01*
X1204662D01*
Y-71631D01*
X1203392D01*
X1209740Y-76709D02*
Y-71631D01*
X1213549D01*
X1214818Y-72900D01*
Y-76709D01*
X1219897Y-79248D02*
X1221166D01*
X1222436Y-77978D01*
Y-71631D01*
X1218627D01*
X1217357Y-72900D01*
Y-75439D01*
X1218627Y-76709D01*
X1222436D01*
X1224975D02*
Y-75439D01*
X1226245D01*
Y-76709D01*
X1224975D01*
X1236401Y-71631D02*
X1232593D01*
X1231323Y-72900D01*
Y-75439D01*
X1232593Y-76709D01*
X1236401D01*
X1240210D02*
X1242749D01*
X1244019Y-75439D01*
Y-72900D01*
X1242749Y-71631D01*
X1240210D01*
X1238941Y-72900D01*
Y-75439D01*
X1240210Y-76709D01*
X1246558D02*
Y-71631D01*
X1247828D01*
X1249097Y-72900D01*
Y-76709D01*
Y-72900D01*
X1250367Y-71631D01*
X1251636Y-72900D01*
Y-76709D01*
X515112Y781811D02*
X518921D01*
X520190Y783081D01*
X518921Y784350D01*
X516382D01*
X515112Y785620D01*
X516382Y786889D01*
X520190D01*
X522729D02*
Y783081D01*
X523999Y781811D01*
X527808D01*
Y786889D01*
X530347Y779272D02*
Y786889D01*
X534156D01*
X535425Y785620D01*
Y783081D01*
X534156Y781811D01*
X530347D01*
X537965Y779272D02*
Y786889D01*
X541773D01*
X543043Y785620D01*
Y783081D01*
X541773Y781811D01*
X537965D01*
X546852D02*
X549391D01*
X550661Y783081D01*
Y785620D01*
X549391Y786889D01*
X546852D01*
X545582Y785620D01*
Y783081D01*
X546852Y781811D01*
X553200Y786889D02*
Y781811D01*
Y784350D01*
X554469Y785620D01*
X555739Y786889D01*
X557009D01*
X562087Y788159D02*
Y786889D01*
X560817D01*
X563356D01*
X562087D01*
Y783081D01*
X563356Y781811D01*
X570974Y784350D02*
Y785620D01*
X569704D01*
Y784350D01*
X570974D01*
X572243Y785620D01*
Y788159D01*
X570974Y789429D01*
X568435D01*
X567165Y788159D01*
Y783081D01*
X568435Y781811D01*
X572243D01*
X574783D02*
Y786889D01*
X578591D01*
X579861Y785620D01*
Y781811D01*
X586209D02*
X583670D01*
X582400Y783081D01*
Y785620D01*
X583670Y786889D01*
X586209D01*
X587479Y785620D01*
Y784350D01*
X582400D01*
X590018Y786889D02*
Y783081D01*
X591287Y781811D01*
X595096D01*
Y786889D01*
X597635D02*
Y781811D01*
Y784350D01*
X598905Y785620D01*
X600174Y786889D01*
X601444D01*
X606522D02*
X609062D01*
X610331Y785620D01*
Y781811D01*
X606522D01*
X605253Y783081D01*
X606522Y784350D01*
X610331D01*
X612870Y781811D02*
X615410D01*
X614140D01*
Y789429D01*
X612870D01*
X624297Y786889D02*
X620488D01*
X619218Y785620D01*
Y783081D01*
X620488Y781811D01*
X624297D01*
X626836D02*
X629375D01*
X628105D01*
Y789429D01*
X626836D01*
X634453Y781811D02*
X636993D01*
X638262Y783081D01*
Y785620D01*
X636993Y786889D01*
X634453D01*
X633184Y785620D01*
Y783081D01*
X634453Y781811D01*
X640801Y786889D02*
Y783081D01*
X642071Y781811D01*
X645880D01*
Y786889D01*
X653497Y789429D02*
Y781811D01*
X649688D01*
X648419Y783081D01*
Y785620D01*
X649688Y786889D01*
X653497D01*
X661115D02*
X657306D01*
X656036Y785620D01*
Y783081D01*
X657306Y781811D01*
X661115D01*
X664923D02*
X667463D01*
X668732Y783081D01*
Y785620D01*
X667463Y786889D01*
X664923D01*
X663654Y785620D01*
Y783081D01*
X664923Y781811D01*
X671272D02*
Y786889D01*
X672541D01*
X673811Y785620D01*
Y781811D01*
Y785620D01*
X675080Y786889D01*
X676350Y785620D01*
Y781811D01*
X678889Y779272D02*
Y786889D01*
X682698D01*
X683967Y785620D01*
Y783081D01*
X682698Y781811D01*
X678889D01*
X686507Y786889D02*
Y783081D01*
X687776Y781811D01*
X691585D01*
Y786889D01*
X695394Y788159D02*
Y786889D01*
X694124D01*
X696663D01*
X695394D01*
Y783081D01*
X696663Y781811D01*
X700472D02*
X703011D01*
X701742D01*
Y786889D01*
X700472D01*
X706820Y781811D02*
Y786889D01*
X710629D01*
X711898Y785620D01*
Y781811D01*
X716977Y779272D02*
X718246D01*
X719516Y780542D01*
Y786889D01*
X715707D01*
X714437Y785620D01*
Y783081D01*
X715707Y781811D01*
X719516D01*
X722055D02*
Y783081D01*
X723325D01*
Y781811D01*
X722055D01*
X733481Y786889D02*
X729673D01*
X728403Y785620D01*
Y783081D01*
X729673Y781811D01*
X733481D01*
X737290D02*
X739829D01*
X741099Y783081D01*
Y785620D01*
X739829Y786889D01*
X737290D01*
X736021Y785620D01*
Y783081D01*
X737290Y781811D01*
X743638D02*
Y786889D01*
X744908D01*
X746177Y785620D01*
Y781811D01*
Y785620D01*
X747447Y786889D01*
X748716Y785620D01*
Y781811D01*
X301752Y1195827D02*
X306830D01*
X304291D01*
Y1180592D01*
X301752D01*
X306830D01*
X314448D02*
Y1190749D01*
X322065D01*
X324605Y1188210D01*
Y1180592D01*
X339840Y1195827D02*
Y1180592D01*
X332222D01*
X329683Y1183131D01*
Y1188210D01*
X332222Y1190749D01*
X339840D01*
X344918D02*
Y1183131D01*
X347457Y1180592D01*
X355075D01*
Y1190749D01*
X370310D02*
X362692D01*
X360153Y1188210D01*
Y1183131D01*
X362692Y1180592D01*
X370310D01*
X377927Y1193288D02*
Y1190749D01*
X375388D01*
X380466D01*
X377927D01*
Y1183131D01*
X380466Y1180592D01*
X388084D02*
X393162D01*
X390623D01*
Y1190749D01*
X388084D01*
X400780D02*
X405858Y1180592D01*
X410937Y1190749D01*
X423633Y1180592D02*
X418554D01*
X416015Y1183131D01*
Y1188210D01*
X418554Y1190749D01*
X423633D01*
X426172Y1188210D01*
Y1185670D01*
X416015D01*
X456642Y1193288D02*
X454103Y1195827D01*
X449024D01*
X446485Y1193288D01*
Y1190749D01*
X449024Y1188210D01*
X454103D01*
X456642Y1185670D01*
Y1183131D01*
X454103Y1180592D01*
X449024D01*
X446485Y1183131D01*
X469338Y1180592D02*
X464259D01*
X461720Y1183131D01*
Y1188210D01*
X464259Y1190749D01*
X469338D01*
X471877Y1188210D01*
Y1185670D01*
X461720D01*
X476955Y1180592D02*
Y1190749D01*
X484573D01*
X487112Y1188210D01*
Y1180592D01*
X492190D02*
X499808D01*
X502347Y1183131D01*
X499808Y1185670D01*
X494730D01*
X492190Y1188210D01*
X494730Y1190749D01*
X502347D01*
X509965Y1180592D02*
X515043D01*
X517582Y1183131D01*
Y1188210D01*
X515043Y1190749D01*
X509965D01*
X507425Y1188210D01*
Y1183131D01*
X509965Y1180592D01*
X522660Y1190749D02*
Y1180592D01*
Y1185670D01*
X525200Y1188210D01*
X527739Y1190749D01*
X530278D01*
X563287Y1193288D02*
X560748Y1195827D01*
X555670D01*
X553131Y1193288D01*
Y1183131D01*
X555670Y1180592D01*
X560748D01*
X563287Y1183131D01*
X570905Y1180592D02*
X575983D01*
X578522Y1183131D01*
Y1188210D01*
X575983Y1190749D01*
X570905D01*
X568366Y1188210D01*
Y1183131D01*
X570905Y1180592D01*
X583601D02*
Y1190749D01*
X591218D01*
X593758Y1188210D01*
Y1180592D01*
X608993Y1195827D02*
Y1180592D01*
X601375D01*
X598836Y1183131D01*
Y1188210D01*
X601375Y1190749D01*
X608993D01*
X614071Y1180592D02*
X619149D01*
X616610D01*
Y1190749D01*
X614071D01*
X629306Y1193288D02*
Y1190749D01*
X626767D01*
X631845D01*
X629306D01*
Y1183131D01*
X631845Y1180592D01*
X639463D02*
X644541D01*
X642002D01*
Y1190749D01*
X639463D01*
X654698Y1180592D02*
X659776D01*
X662315Y1183131D01*
Y1188210D01*
X659776Y1190749D01*
X654698D01*
X652159Y1188210D01*
Y1183131D01*
X654698Y1180592D01*
X667394D02*
Y1190749D01*
X675011D01*
X677550Y1188210D01*
Y1180592D01*
X690246D02*
X685168D01*
X682629Y1183131D01*
Y1188210D01*
X685168Y1190749D01*
X690246D01*
X692785Y1188210D01*
Y1185670D01*
X682629D01*
X697864Y1190749D02*
Y1180592D01*
Y1185670D01*
X700403Y1188210D01*
X702942Y1190749D01*
X705481D01*
X301752Y1200910D02*
Y1216145D01*
X311909Y1200910D01*
Y1216145D01*
X327144Y1213606D02*
X324605Y1216145D01*
X319526D01*
X316987Y1213606D01*
Y1203449D01*
X319526Y1200910D01*
X324605D01*
X327144Y1203449D01*
X342379Y1213606D02*
X339840Y1216145D01*
X334761D01*
X332222Y1213606D01*
Y1203449D01*
X334761Y1200910D01*
X339840D01*
X342379Y1203449D01*
X372849Y1216145D02*
X362692D01*
Y1200910D01*
X372849D01*
X362692Y1208528D02*
X367771D01*
X377927Y1200910D02*
X385545D01*
X388084Y1203449D01*
X385545Y1205989D01*
X380466D01*
X377927Y1208528D01*
X380466Y1211067D01*
X388084D01*
X395702Y1213606D02*
Y1211067D01*
X393162D01*
X398241D01*
X395702D01*
Y1203449D01*
X398241Y1200910D01*
X408397D02*
X413476D01*
X416015Y1203449D01*
Y1208528D01*
X413476Y1211067D01*
X408397D01*
X405858Y1208528D01*
Y1203449D01*
X408397Y1200910D01*
X421093Y1195832D02*
Y1211067D01*
X428711D01*
X431250Y1208528D01*
Y1203449D01*
X428711Y1200910D01*
X421093D01*
X436329D02*
X441407D01*
X438868D01*
Y1216145D01*
X436329Y1213606D01*
X459181Y1200910D02*
X449024D01*
X459181Y1211067D01*
Y1213606D01*
X456642Y1216145D01*
X451563D01*
X449024Y1213606D01*
X304800Y789938D02*
Y784859D01*
X307339Y782320D01*
X309878Y784859D01*
Y789938D01*
X316226Y782320D02*
X313687D01*
X312418Y783590D01*
Y786129D01*
X313687Y787398D01*
X316226D01*
X317496Y786129D01*
Y784859D01*
X312418D01*
X320035Y787398D02*
Y782320D01*
Y784859D01*
X321305Y786129D01*
X322574Y787398D01*
X323844D01*
X327653Y782320D02*
X331461D01*
X332731Y783590D01*
X331461Y784859D01*
X328922D01*
X327653Y786129D01*
X328922Y787398D01*
X332731D01*
X335270Y782320D02*
X337809D01*
X336540D01*
Y787398D01*
X335270D01*
X342888Y782320D02*
X345427D01*
X346696Y783590D01*
Y786129D01*
X345427Y787398D01*
X342888D01*
X341618Y786129D01*
Y783590D01*
X342888Y782320D01*
X349236D02*
Y787398D01*
X353044D01*
X354314Y786129D01*
Y782320D01*
X364471D02*
X367010D01*
X365740D01*
Y789938D01*
X364471Y788668D01*
X370819Y782320D02*
Y783590D01*
X372088D01*
Y782320D01*
X370819D01*
X377167Y788668D02*
X378436Y789938D01*
X380975D01*
X382245Y788668D01*
Y783590D01*
X380975Y782320D01*
X378436D01*
X377167Y783590D01*
Y788668D01*
D27*
X754502Y1092118D02*
Y1089619D01*
Y1090869D01*
X760750D01*
X762000Y1089619D01*
Y1088370D01*
X760750Y1087120D01*
X762000Y1094618D02*
Y1097117D01*
Y1095867D01*
X754502D01*
X755752Y1094618D01*
X762000Y1104614D02*
X754502D01*
X758251Y1100866D01*
Y1105864D01*
X256982Y1062598D02*
Y1057600D01*
X260731D01*
Y1060099D01*
Y1057600D01*
X264480D01*
X259482Y1065098D02*
X264480D01*
X261981D01*
X260731Y1066347D01*
X259482Y1067597D01*
Y1068846D01*
X264480Y1073845D02*
Y1076344D01*
X263230Y1077594D01*
X260731D01*
X259482Y1076344D01*
Y1073845D01*
X260731Y1072595D01*
X263230D01*
X264480Y1073845D01*
Y1080093D02*
X259482D01*
Y1083842D01*
X260731Y1085091D01*
X264480D01*
X258232Y1088840D02*
X259482D01*
Y1087590D01*
Y1090090D01*
Y1088840D01*
X263230D01*
X264480Y1090090D01*
M02*
