M48
;Layer_Color=9474304
;FILE_FORMAT=4:4
METRIC,LZ
;TYPE=PLATED
T1F00S00C0.8000
T2F00S00C0.8500
T3F00S00C1.0668
T4F00S00C1.1200
T5F00S00C1.8000
T6F00S00C3.2000
;TYPE=NON_PLATED
T7F00S00C1.0668
%
T01
X0044236Y0082804
X0049236
Y0087884
X0044236
Y0092964
X0049236
Y0098044
X0044236
X0042204Y0103124
Y0106172
X0047204
Y0103124
X005084
Y0106172
X005584
Y0103124
T02
X004191Y0085344
Y0090424
Y0095504
Y0100584
X004953
Y0095504
Y0090424
Y0085344
X005461Y008509
Y0083058
Y0087122
Y0089154
Y0091186
Y0093218
Y009525
Y0097282
X006223
Y009525
Y0093218
Y0091186
Y0089154
Y0087122
Y008509
Y0083058
T03
X002794Y0084328
X003048
X003302
Y00883278
X003048
X002794
Y00923918
X003048
X003302
Y00964558
X003048
X002794
X0069088Y009652
X0071628
X0074168
Y0092456
X0071628
X0069088
Y0088392
X0071628
X0074168
Y0084328
X0071628
X0069088
X0078232Y0107188
Y0109728
Y0112268
T04
X0044196Y0111252
Y0113792
X0048768
Y0111252
X005334
Y0113792
X0057912
Y0111252
T05
X0028448Y010336
Y010756
Y011176
X0032648
Y010756
Y010336
T06
X0078232Y0079248
X00254
X007874Y011938
X00254
T07
X0064008Y01016
X0067056
X0070104
X0073152
Y011176
X0070104
X0067056
X0064008
M30
